SplineFontDB: 3.2
FontName: MFEKSans-Thin
FullName: MFEK Sans Thin
FamilyName: MFEK Sans Thin
Weight: Thin
Copyright: 
Version: 0.1
ItalicAngle: -13
UnderlinePosition: -200
UnderlineWidth: 100
Ascent: 1600
Descent: 400
InvalidEm: 0
LayerCount: 2
Layer: 0 0 "Back" 1
Layer: 1 0 "Fore" 0
XUID: [1021 31 -699969567 16487490]
FSType: 0
OS2Version: 0
OS2_WeightWidthSlopeOnly: 0
OS2_UseTypoMetrics: 1
CreationTime: 1460762150
ModificationTime: 1695856264
PfmFamily: 33
TTFWeight: 100
TTFWidth: 5
LineGap: 0
VLineGap: 0
OS2TypoAscent: 2500
OS2TypoAOffset: 0
OS2TypoDescent: -850
OS2TypoDOffset: 0
OS2TypoLinegap: 0
OS2WinAscent: 2500
OS2WinAOffset: 0
OS2WinDescent: 850
OS2WinDOffset: 0
HheadAscent: 2500
HheadAOffset: 0
HheadDescent: -850
HheadDOffset: 0
OS2CapHeight: 1500
OS2XHeight: 1040
OS2FamilyClass: 2053
OS2Vendor: 'it* '
OS2UnicodeRanges: 00000001.00000000.00000000.00000000
Lookup: 258 0 0 "kerning yeah boi" { "say cheese" [300,0,4] } ['kern' ('DFLT' <'dflt' > 'grek' <'dflt' > 'latn' <'dflt' > ) ]
MarkAttachClasses: 1
DEI: 91125
KernClass2: 30 23 "say cheese"
 73 A Agrave Aacute Acircumflex Atilde Adieresis Aring Amacron Abreve Aogonek
 96 D O Ograve Oacute Ocircumflex Otilde Odieresis Oslash Dcaron Dcroat Omacron Obreve Ohungarumlaut
 81 E AE Egrave Eacute Ecircumflex Edieresis Emacron Ebreve Edotaccent Eogonek Ecaron
 1 F
 39 G Gcircumflex Gbreve Gdotaccent uni0122
 104 J U Ugrave Uacute Ucircumflex Udieresis IJ Jcircumflex Utilde Umacron Ubreve Uring Uhungarumlaut Uogonek
 11 K X uni0136
 23 L Lacute uni013B Lslash
 1 P
 1 Q
 23 R Racute uni0156 Rcaron
 36 S Sacute Scircumflex Scedilla Scaron
 21 T uni0162 Tcaron Tbar
 1 V
 53 W Wcircumflex Wgrave Wacute Wdieresis uni1E86 uni1E88
 30 Y Ycircumflex Ydieresis Ygrave
 26 Z Zacute Zdotaccent Zcaron
 73 a agrave aacute acircumflex atilde adieresis aring amacron abreve aogonek

StartChar: ampersand
Encoding: 38 38 0
Width: 1280
VWidth: 1920
Flags: HMW
LayerCount: 2
Fore
SplineSet
1005 10 m 2
 607 734 l 2
 514 903 457 1030 488 1163 c 0
 520 1303 649 1435 856 1435 c 0
 1043 1435 1160 1343 1121 1173 c 0
 1079 990 925 868 696 776 c 0
 416 664 126 627 84 443 c 0
 63 354 75 294 107 219 c 2
 141 139 l 2
 177 54 285 -5 410 -5 c 4
 652 -5 931 246 1150 640 c 0
 1153 645 1158 648 1165 648 c 2
 1175 648 l 2
 1182 648 1183 645 1178 637 c 0
 948 227 671 -35 403 -35 c 0
 267 -35 151 15 106 119 c 2
 72 199 l 2
 37 279 26 347 48 443 c 0
 96 652 419 695 683 806 c 0
 927 908 1049 1012 1086 1173 c 0
 1118 1313 1026 1405 849 1405 c 0
 672 1405 554 1292 524 1163 c 0
 497 1044 550 918 645 744 c 2
 1045 10 l 2
 1050 4 1047 0 1040 0 c 2
 1020 0 l 2
 1013 0 1008 3 1005 10 c 2
EndSplineSet
EndChar

StartChar: period
Encoding: 46 46 1
Width: 540
VWidth: 1920
Flags: HMW
LayerCount: 2
Fore
SplineSet
160 0 m 6
 140 0 l 6
 133 0 130 3 132 10 c 6
 176 200 l 6
 178 207 181 210 188 210 c 6
 208 210 l 6
 215 210 218 207 216 200 c 6
 172 10 l 6
 170 3 167 0 160 0 c 6
EndSplineSet
EndChar

StartChar: zero
Encoding: 48 48 2
Width: 1150
VWidth: 1920
Flags: HMW
LayerCount: 2
Fore
SplineSet
173 488 m 258
 271 913 l 258
 346 1239 504 1435 786 1435 c 256
 1068 1435 1136 1239 1061 913 c 258
 963 488 l 258
 888 162 728 -35 447 -35 c 256
 166 -35 98 162 173 488 c 258
208 488 m 262
 139 190 190 -5 454 -5 c 256
 718 -5 859 190 928 488 c 258
 1026 913 l 258
 1095 1211 1043 1405 779 1405 c 256
 515 1405 375 1211 306 913 c 262
 208 488 l 262
EndSplineSet
EndChar

StartChar: one
Encoding: 49 49 3
Width: 600
VWidth: 1920
Flags: HMW
LayerCount: 2
Fore
SplineSet
489 1376 m 4
 499 1384 501 1400 511 1440 c 4
 513 1447 514 1450 521 1450 c 6
 523 1450 l 6
 530 1450 529 1447 527 1440 c 6
 197 10 l 6
 195 3 192 0 185 0 c 6
 175 0 l 6
 168 0 165 3 167 10 c 6
 480 1364 l 6
 482 1371 485 1373 489 1376 c 4
EndSplineSet
EndChar

StartChar: two
Encoding: 50 50 4
Width: 1080
VWidth: 1920
Flags: HMW
LayerCount: 2
Fore
SplineSet
49 40 m 258
 161 524 896 636 988 1033 c 258
 997 1068 l 258
 1036 1238 970 1405 763 1405 c 256
 513 1405 389 1255 331 1002 c 258
 311 912 l 2
 309 905 305 902 298 902 c 2
 283 902 l 2
 276 902 274 905 276 912 c 2
 296 1002 l 258
 359 1276 493 1435 770 1435 c 256
 997 1435 1075 1253 1033 1073 c 258
 1022 1028 l 258
 928 622 187 486 85 45 c 262
 83 35 l 261
 878 35 l 2
 885 35 888 32 886 25 c 2
 882 10 l 2
 880 3 877 0 870 0 c 2
 45 0 l 6
 38 0 40 3 42 10 c 2
 49 40 l 258
EndSplineSet
EndChar

StartChar: three
Encoding: 51 51 5
Width: 1100
VWidth: 1920
Flags: HMW
LayerCount: 2
Fore
SplineSet
144 407 m 2
 154 407 l 2
 161 407 164 404 162 397 c 2
 145 327 l 2
 94 107 180 -5 409 -5 c 0
 686 -5 818 142 864 342 c 6
 876 393 l 2
 922 593 808 740 581 740 c 2
 501 740 l 2
 494 740 491 743 493 750 c 2
 495 760 l 2
 497 767 501 770 508 770 c 2
 568 770 l 2
 805 770 936 893 973 1053 c 2
 981 1088 l 2
 1025 1278 975 1405 748 1405 c 0
 538 1405 397 1265 348 1052 c 2
 327 962 l 2
 325 955 322 952 315 952 c 2
 305 952 l 2
 298 952 295 955 297 962 c 2
 318 1052 l 2
 372 1286 528 1435 755 1435 c 0
 982 1435 1068 1313 1015 1083 c 2
 1009 1058 l 2
 967 878 820 750 563 750 c 1
 585 760 l 1
 842 760 957 612 906 392 c 2
 893 337 l 6
 845 127 699 -35 402 -35 c 4
 150 -35 62 99 115 327 c 2
 132 397 l 2
 134 404 137 407 144 407 c 2
EndSplineSet
EndChar

StartChar: four
Encoding: 52 52 6
Width: 1045
VWidth: 1920
Flags: HMW
LayerCount: 2
Fore
SplineSet
925 410 m 2
 922 400 l 2
 920 393 917 390 910 390 c 2
 725 390 l 261
 637 10 l 6
 635 3 632 0 625 0 c 6
 610 0 l 2
 603 0 600 3 602 10 c 2
 690 390 l 257
 30 390 l 2
 23 390 20 393 22 400 c 2
 29 430 l 2
 31 437 34 443 41 450 c 2
 904 1390 l 2
 909 1395 916 1400 923 1400 c 2
 948 1400 l 6
 955 1400 958 1397 956 1390 c 6
 732 420 l 261
 917 420 l 2
 924 420 927 417 925 410 c 2
697 420 m 257
 914 1361 l 257
 52 420 l 257
 697 420 l 257
EndSplineSet
EndChar

StartChar: five
Encoding: 53 53 7
Width: 1100
VWidth: 1920
Flags: HMW
LayerCount: 2
Fore
SplineSet
155 368 m 2
 165 368 l 2
 172 368 175 365 174 359 c 0
 132 122 197 -5 414 -5 c 0
 663 -5 881 157 944 428 c 2
 959 493 l 2
 1019 753 898 925 704 925 c 0
 568 925 402 815 279 664 c 0
 272 656 268 653 261 653 c 2
 251 653 l 2
 244 653 241 655 244 663 c 2
 521 1390 l 2
 524 1397 527 1400 534 1400 c 2
 1134 1400 l 2
 1141 1400 1144 1397 1142 1390 c 2
 1142 1389 l 6
 1138 1373 1107 1370 937 1370 c 2
 540 1370 l 1
 277 675 l 1
 264 675 l 1
 372 818 550 955 710 955 c 0
 910 955 1063 790 994 493 c 2
 979 428 l 2
 910 131 677 -35 407 -35 c 0
 173 -35 101 101 144 358 c 0
 146 365 148 368 155 368 c 2
EndSplineSet
EndChar

StartChar: six
Encoding: 54 54 8
Width: 1229
VWidth: 1920
Flags: HMW
LayerCount: 2
Fore
SplineSet
719 860 m 260
 479 860 264 665 224 492 c 262
 210 432 l 261
 211 502 l 261
 249 666 458 890 725 890 c 260
 982 890 1088 731 1025 457 c 262
 1013 407 l 262
 949 129 793 -35 501 -35 c 260
 164 -35 131 197 191 457 c 262
 280 843 l 262
 368 1223 514 1435 841 1435 c 260
 1138 1435 1176 1266 1134 1082 c 262
 1127 1052 l 6
 1125 1045 1122 1042 1115 1042 c 6
 1105 1042 l 6
 1098 1042 1095 1045 1097 1052 c 6
 1104 1082 l 262
 1142 1245 1114 1405 834 1405 c 260
 527 1405 386 1198 303 838 c 262
 217 462 l 262
 157 202 201 -5 508 -5 c 260
 787 -5 925 157 985 417 c 262
 995 457 l 262
 1053 710 959 860 719 860 c 260
EndSplineSet
EndChar

StartChar: seven
Encoding: 55 55 9
Width: 1015
VWidth: 1920
Flags: HMW
LayerCount: 2
Fore
SplineSet
1212 1390 m 2
 241 10 l 2
 236 3 232 0 225 0 c 2
 195 0 l 6
 188 0 186 3 191 10 c 6
 1171 1370 l 257
 281 1370 l 2
 274 1370 272 1373 274 1380 c 2
 276 1390 l 2
 278 1397 281 1400 288 1400 c 2
 1208 1400 l 2
 1215 1400 1216 1396 1212 1390 c 2
EndSplineSet
EndChar

StartChar: eight
Encoding: 56 56 10
Width: 1182
VWidth: 1920
Flags: HMW
LayerCount: 2
Fore
SplineSet
470 -5 m 256
 730 -5 864 116 916 342 c 258
 929 397 l 258
 977 604 898 720 637 720 c 256
 376 720 245 604 197 397 c 258
 184 342 l 258
 132 116 210 -5 470 -5 c 256
644 750 m 256
 894 750 985 857 1030 1053 c 258
 1038 1088 l 258
 1086 1295 1013 1405 795 1405 c 260
 577 1405 454 1295 406 1088 c 258
 398 1053 l 258
 353 857 394 750 644 750 c 256
673 740 m 257
 923 740 1012 624 958 392 c 258
 947 347 l 258
 890 100 741 -35 463 -35 c 256
 185 -35 98 100 155 347 c 258
 166 392 l 258
 220 624 361 740 611 740 c 257
 611 730 l 257
 376 735 318 837 369 1058 c 258
 375 1083 l 258
 426 1304 564 1435 802 1435 c 256
 1040 1435 1118 1304 1067 1083 c 258
 1061 1058 l 258
 1010 837 906 735 669 730 c 257
 673 740 l 257
EndSplineSet
EndChar

StartChar: nine
Encoding: 57 57 11
Width: 1169
VWidth: 1920
Flags: HMW
LayerCount: 2
Fore
SplineSet
564 540 m 260
 804 540 1019 735 1059 908 c 262
 1072 968 l 261
 1071 898 l 261
 1033 734 824 510 557 510 c 260
 300 510 195 669 258 943 c 262
 269 993 l 262
 333 1271 489 1435 781 1435 c 260
 1118 1435 1152 1203 1092 943 c 262
 1003 557 l 262
 915 177 768 -35 441 -35 c 260
 144 -35 106 134 148 318 c 262
 155 348 l 6
 157 355 161 358 168 358 c 6
 178 358 l 6
 185 358 187 355 185 348 c 6
 178 318 l 262
 140 155 168 -5 448 -5 c 260
 755 -5 896 202 979 562 c 262
 1066 938 l 262
 1126 1198 1081 1405 774 1405 c 260
 495 1405 357 1243 297 983 c 262
 288 943 l 262
 230 690 324 540 564 540 c 260
EndSplineSet
EndChar

StartChar: A
Encoding: 65 65 12
Width: 1127
VWidth: 1872
Flags: HW
AnchorPoint: "ogonek" 920 0 basechar 0
AnchorPoint: "bottom" 445 0 basechar 0
AnchorPoint: "top" 777 1400 basechar 0
LayerCount: 2
Fore
SplineSet
252 508 m 1
 843 508 l 1
 836 478 l 1
 245 478 l 1
 252 508 l 1
747 1354 m 5
 5 10 l 6
 2 4 -3 0 -9 0 c 6
 -32 0 l 2
 -39 0 -40 4 -37 10 c 2
 735 1390 l 2
 738 1396 743 1400 749 1400 c 2
 759 1400 l 2
 765 1400 767 1396 768 1390 c 2
 911 10 l 2
 912 4 910 0 903 0 c 2
 885 0 l 6
 879 0 876 3 876 10 c 6
 747 1354 l 5
EndSplineSet
EndChar

StartChar: B
Encoding: 66 66 13
Width: 1145
VWidth: 1872
Flags: HW
AnchorPoint: "top" 777 1400 basechar 0
AnchorPoint: "bottom" 475 0 basechar 0
LayerCount: 2
Fore
SplineSet
314 730 m 1
 699 730 l 2
 896 730 1060 850 1103 1038 c 2
 1110 1071 l 2
 1160 1288 1052 1370 846 1370 c 2
 461 1370 l 1
 314 730 l 1
714 720 m 1
 938 720 1085 623 1028 377 c 2
 1020 343 l 2
 956 67 772 0 548 0 c 2
 124 0 l 2
 117 0 115 3 117 10 c 2
 436 1390 l 2
 438 1397 440 1400 447 1400 c 2
 853 1400 l 2
 1077 1400 1200 1313 1143 1066 c 2
 1138 1043 l 2
 1088 827 918 710 694 710 c 1
 714 720 l 1
709 700 m 2
 307 700 l 1
 152 30 l 1
 554 30 l 2
 761 30 929 92 986 338 c 2
 996 382 l 6
 1049.67387033 618.16502947 916 700 709 700 c 2
EndSplineSet
EndChar

StartChar: C
Encoding: 67 67 14
Width: 1244
VWidth: 1872
Flags: HW
AnchorPoint: "top" 877 1400 basechar 0
AnchorPoint: "bottom" 529 -25 basechar 0
LayerCount: 2
Fore
SplineSet
1140 503 m 0
 1130 466 1114 430 1099 393 c 0
 1023 195 766 -34 517 -34 c 0
 160 -34 65.2883619231 232.933571075 151 605 c 2
 195 796 l 2
 281 1170 509 1434 846 1434 c 0
 1090 1434 1224 1314.00390625 1224 1148 c 0
 1224 1081 1194 995 1178 968 c 0
 1173 960 1173 958 1166 958 c 2
 1157 958 l 2
 1150 958 1144 960 1148 968 c 0
 1284 1270 1079 1404 849 1404 c 0
 530 1404 306 1148 225 796 c 2
 181 605 l 2
 100 254 188 -4 516 -4 c 0
 725 -4 1018 192 1106 503 c 4
 1108 512 1111 513 1118 513 c 6
 1132 513 l 2
 1139 513 1142 512 1140 503 c 0
EndSplineSet
EndChar

StartChar: D
Encoding: 68 68 15
Width: 1229
VWidth: 1872
Flags: HW
AnchorPoint: "top" 807 1400 basechar 0
AnchorPoint: "bottom" 465 0 basechar 0
LayerCount: 2
Fore
SplineSet
495 0 m 2
 107 0 l 2
 100 0 98 3 100 10 c 2
 419 1390 l 2
 421 1397 423 1400 430 1400 c 2
 818 1400 l 2
 1093 1400 1236 1165 1151 795 c 2
 1107 606 l 2
 1022 236 805 0 495 0 c 2
502 30 m 2
 786 30 1000.24408455 273.554001472 1077 605 c 6
 1121 795 l 6
 1206.66557998 1164.9195499 1068 1370 811 1370 c 6
 444 1370 l 1
 135 30 l 1
 502 30 l 2
EndSplineSet
EndChar

StartChar: E
Encoding: 69 69 16
Width: 1162
VWidth: 1872
Flags: HW
AnchorPoint: "ogonek" 950 0 basechar 0
AnchorPoint: "top" 837 1400 basechar 0
AnchorPoint: "bottom" 515 0 basechar 0
LayerCount: 2
Fore
SplineSet
297 730 m 1
 834 730 l 2
 840 730 842 727 840 720 c 2
 838 710 l 2
 836 703 833 700 827 700 c 2
 290 700 l 1
 135 30 l 1
 929 30 l 2
 936 30 939 27 937 20 c 2
 934 10 l 2
 932 3 929 0 922 0 c 2
 107 0 l 2
 100 0 98 3 100 10 c 2
 419 1390 l 2
 421 1397 423 1400 430 1400 c 2
 1225 1400 l 2
 1232 1400 1235 1397 1233 1390 c 2
 1231 1380 l 2
 1229 1373 1225 1370 1218 1370 c 2
 444 1370 l 1
 297 730 l 1
EndSplineSet
EndChar

StartChar: F
Encoding: 70 70 17
Width: 1066
VWidth: 1872
Flags: HW
AnchorPoint: "top" 847 1400 basechar 0
AnchorPoint: "bottom" 525 0 basechar 0
LayerCount: 2
Fore
SplineSet
297 730 m 1
 757 730 l 2
 765 730 765 729 763 720 c 2
 761 710 l 2
 759 701 758 700 750 700 c 2
 290 700 l 1
 130 10 l 2
 128 1 127 0 118 0 c 2
 107 0 l 2
 98 0 98 1 100 10 c 2
 419 1390 l 2
 421 1397 423 1400 430 1400 c 2
 1183 1400 l 2
 1190 1400 1193 1397 1191 1390 c 2
 1189 1380 l 2
 1187 1373 1183 1370 1176 1370 c 2
 444 1370 l 1
 297 730 l 1
EndSplineSet
EndChar

StartChar: G
Encoding: 71 71 18
Width: 1223
VWidth: 1872
Flags: HW
AnchorPoint: "top" 847 1400 basechar 0
AnchorPoint: "bottom" 505 0 basechar 0
LayerCount: 2
Fore
SplineSet
721 635 m 2
 723 646 l 2
 725 653 728 655 734 655 c 2
 1108 655 l 2
 1115 655 1118 653 1116 646 c 2
 969 10 l 2
 967 3 964 0 957 0 c 2
 956 0 l 2
 949 0 945 3 947 10 c 2
 1073 586 l 1
 1100 621 l 1
 990 227 747 -34 461 -34 c 0
 134 -34 26 231 113 606 c 2
 157 795 l 2
 243 1169 490 1434 827 1434 c 0
 996 1434 1123 1342 1167 1210 c 0
 1192 1134 1197 1045 1180 968 c 0
 1178 959 1175 958 1168 958 c 2
 1158 958 l 2
 1152 958 1149 959 1151 968 c 0
 1199 1212 1072 1404 830 1404 c 0
 503 1404 266 1137 187 795 c 2
 143 606 l 2
 59 243 158 -4 467 -4 c 4
 657 -4 948 154 1083 645 c 1
 1089 625 l 1
 727 625 l 2
 721 625 719 628 721 635 c 2
EndSplineSet
EndChar

StartChar: H
Encoding: 72 72 19
Width: 1227
VWidth: 1872
Flags: HW
AnchorPoint: "top" 827 1400 basechar 0
AnchorPoint: "bottom" 505 0 basechar 0
LayerCount: 2
Fore
SplineSet
1226 1400 m 2
 1237 1400 l 2
 1244 1400 1247 1397 1245 1390 c 2
 926 10 l 2
 924 3 921 0 914 0 c 2
 903 0 l 2
 896 0 894 3 896 10 c 2
 1056 700 l 1
 272 700 l 1
 112 10 l 2
 110 3 107 0 100 0 c 2
 90 0 l 2
 83 0 80 3 82 10 c 2
 401 1390 l 2
 403 1397 406 1400 413 1400 c 10
 423 1400 l 18
 430 1400 433 1397 431 1390 c 10
 279 730 l 1
 1063 730 l 1
 1215 1390 l 2
 1217 1397 1219 1400 1226 1400 c 2
EndSplineSet
EndChar

StartChar: I
Encoding: 73 73 20
Width: 506
VWidth: 1872
Flags: HW
AnchorPoint: "ogonek" 130 0 basechar 0
AnchorPoint: "top" 452 1400 basechar 0
AnchorPoint: "bottom" 130 0 basechar 0
LayerCount: 2
Fore
SplineSet
438 1400 m 10
 448 1400 l 18
 455 1400 458 1397 456 1390 c 10
 137 10 l 18
 135 3 132 0 125 0 c 10
 115 0 l 18
 108 0 105 3 107 10 c 10
 426 1390 l 18
 428 1397 431 1400 438 1400 c 10
EndSplineSet
EndChar

StartChar: J
Encoding: 74 74 21
Width: 795
VWidth: 1872
Flags: HW
AnchorPoint: "top" 796 1400 basechar 0
AnchorPoint: "bottom" 240 0 basechar 0
LayerCount: 2
Fore
SplineSet
752 1400 m 2
 772 1400 l 2
 779 1400 782 1397 780 1390 c 2
 580 525 l 2
 492.840876653 148.036791525 440 -34 207 -34 c 0
 2 -34 -97.3052533654 102.032552115 68 376 c 2
 211 613 l 2
 213 620 216 623 223 623 c 2
 238 623 l 2
 245 623 248 620 246 613 c 2
 103 376 l 2
 -55.5909588947 113.160438755 23 1 207 1 c 4
 413 1 461.79649924 182.81578174 534 495 c 2
 741 1390 l 2
 743 1397 745 1400 752 1400 c 2
EndSplineSet
EndChar

StartChar: K
Encoding: 75 75 22
Width: 1138
VWidth: 1872
Flags: HW
AnchorPoint: "top" 777 1400 basechar 0
AnchorPoint: "bottom" 465 0 basechar 0
LayerCount: 2
Fore
SplineSet
413 1400 m 10
 423 1400 l 18
 430 1400 433 1397 431 1390 c 10
 112 10 l 18
 110 3 107 0 100 0 c 10
 90 0 l 18
 83 0 80 3 82 10 c 10
 401 1390 l 18
 403 1397 406 1400 413 1400 c 10
555 826 m 1
 582 847 l 1
 923 10 l 2
 927 2 925 0 918 0 c 2
 899 0 l 2
 893 0 889 2 886 10 c 2
 555 826 l 1
1198 1390 m 2
 1204 1395 1209 1400 1218 1400 c 6
 1235 1400 l 2
 1248 1400 1248 1397 1239 1390 c 2
 583 825 l 1
 572 816 l 1
 208 513 l 1
 216 556 l 1
 1198 1390 l 2
EndSplineSet
EndChar

StartChar: L
Encoding: 76 76 23
Width: 1011
VWidth: 1872
Flags: HW
AnchorPoint: "top" 467 1400 basechar 0
AnchorPoint: "bottom" 525 0 basechar 0
LayerCount: 2
Fore
SplineSet
413 1400 m 2
 423 1400 l 2
 430 1400 433 1397 431 1390 c 2
 117 30 l 25
 809 30 l 2
 816 30 818 27 816 20 c 2
 813 10 l 2
 811 3 809 0 802 0 c 2
 90 0 l 2
 83 0 80 3 82 10 c 2
 401 1390 l 2
 403 1397 406 1400 413 1400 c 2
EndSplineSet
EndChar

StartChar: M
Encoding: 77 77 24
Width: 1422
VWidth: 1872
Flags: HW
AnchorPoint: "top" 957 1400 basechar 0
AnchorPoint: "bottom" 652 0 basechar 0
LayerCount: 2
Fore
SplineSet
409 1336 m 1
 103 10 l 2
 101 3 99 0 92 0 c 2
 81 0 l 2
 74 0 72 3 74 10 c 2
 393 1390 l 2
 395 1397 397 1400 404 1400 c 2
 425 1400 l 2
 431 1400 434 1397 435 1390 c 2
 636 44 l 1
 1433 1390 l 2
 1437 1397 1441 1400 1448 1400 c 2
 1468 1400 l 2
 1475 1400 1478 1397 1476 1390 c 2
 1159 10 l 2
 1157 3 1154 0 1147 0 c 2
 1137 0 l 2
 1130 0 1127 3 1129 10 c 2
 1433 1336 l 1
 650 10 l 2
 646 3 643 0 636 0 c 2
 617 0 l 2
 610 0 606 3 606 10 c 2
 409 1336 l 1
EndSplineSet
EndChar

StartChar: N
Encoding: 78 78 25
Width: 1227
VWidth: 1872
Flags: HW
AnchorPoint: "top" 897 1400 basechar 0
AnchorPoint: "bottom" 565 0 basechar 0
LayerCount: 2
Fore
SplineSet
1264 1400 m 2
 1275 1400 l 2
 1282 1400 1285 1397 1283 1390 c 2
 964 10 l 2
 962 3 959 0 952 0 c 2
 933 0 l 2
 927 0 923 2 920 10 c 2
 417 1379 l 1
 428 1376 l 1
 112 10 l 2
 110 3 107 0 100 0 c 2
 90 0 l 2
 83 0 80 3 82 10 c 2
 401 1390 l 2
 403 1397 406 1400 413 1400 c 2
 433 1400 l 2
 440 1400 442 1398 445 1390 c 2
 950 33 l 1
 940 36 l 1
 1253 1390 l 2
 1255 1397 1257 1400 1264 1400 c 2
EndSplineSet
EndChar

StartChar: O
Encoding: 79 79 26
Width: 1317
VWidth: 1872
Flags: HW
AnchorPoint: "top" 881 1400 basechar 0
AnchorPoint: "bottom" 559 0 basechar 0
LayerCount: 2
Fore
SplineSet
138 603 m 2
 183 798 l 2
 270 1177 530 1434 862 1434 c 0
 1194 1434 1333 1176 1246 798 c 2
 1201 603 l 2
 1114 224 855 -34 523 -34 c 0
 191 -34 51 224 138 603 c 2
168 602 m 2
 85 243 208 -4 523 -4 c 4
 828 -4 1088 243 1171 602 c 2
 1216 799 l 2
 1299 1158 1174 1404 858 1404 c 4
 552 1404 296 1159 213 799 c 2
 168 602 l 2
EndSplineSet
EndChar

StartChar: P
Encoding: 80 80 27
Width: 1141
VWidth: 1872
Flags: HW
AnchorPoint: "top" 787 1400 basechar 0
AnchorPoint: "bottom" 115 0 basechar 0
LayerCount: 2
Fore
SplineSet
444 1370 m 1
 286 684 l 1
 647 684 l 2
 878 684 1015 736 1072 982 c 2
 1089 1057 l 2
 1146 1303 1047 1370 805 1370 c 6
 444 1370 l 1
810 1400 m 6
 1062 1400 1181 1324 1119 1057 c 6
 1102 982 l 2
 1040 715 889 654 639 654 c 2
 279 654 l 1
 130 10 l 2
 128 3 125 0 118 0 c 2
 107 0 l 2
 100 0 98 3 100 10 c 2
 419 1390 l 2
 421 1397 423 1400 430 1400 c 2
 810 1400 l 6
EndSplineSet
EndChar

StartChar: Q
Encoding: 81 81 28
Width: 1438
VWidth: 1872
Flags: HW
AnchorPoint: "top" 883 1400 basechar 0
AnchorPoint: "bottom" 561 0 basechar 0
LayerCount: 2
Fore
SplineSet
1278 20 m 2
 1275 10 l 2
 1273 3 1274 0 1262 -3 c 0
 1046 -54 1053 128 1113 387 c 1
 1178 573 l 1
 1099 232 877 -34 506 -34 c 0
 160 -34 67 261 146 602 c 2
 191 799 l 2
 270 1141 491 1434 862 1434 c 0
 1233 1434 1319 1151 1240 809 c 2
 1127 320 l 2
 1072 83 1121 -15 1269 30 c 0
 1281 34 1280 27 1278 20 c 2
1149 544 m 2
 1210 809 l 2
 1280 1112 1211 1404 867 1404 c 0
 523 1404 296 1122 222 800 c 2
 176 601 l 2
 102 281 175 -4 520 -4 c 4
 839 -4 1082 252 1149 544 c 2
EndSplineSet
EndChar

StartChar: R
Encoding: 82 82 29
Width: 1231
VWidth: 1872
Flags: HW
AnchorPoint: "top" 827 1400 basechar 0
AnchorPoint: "bottom" 525 0 basechar 0
LayerCount: 2
Fore
SplineSet
444 1370 m 1
 295 725 l 1
 708 725 l 2
 871 725 1041 816 1084 1003 c 2
 1094 1048 l 2
 1142 1254 1074 1370 857 1370 c 6
 444 1370 l 1
864 1400 m 2
 1081 1400 1176 1274 1124 1047 c 2
 1116 1014 l 6
 1061.13096271 787.665221162 911 710 705 710 c 1
 707 720 l 1
 930 720 1025 663 971 429 c 2
 947 323 l 2
 921 209 921 90 948 24 c 0
 953 13 952 10 951 7 c 2
 950 5 l 2
 949 1 946 0 939 0 c 2
 929 0 l 2
 923 0 920 0 917 9 c 0
 889 105 885 195 915 323 c 2
 939 430 l 2
 993 662 893 704 704 704 c 2
 291 704 l 1
 130 10 l 2
 128 3 125 0 118 0 c 2
 107 0 l 2
 100 0 98 3 100 10 c 2
 419 1390 l 2
 421 1397 423 1400 430 1400 c 2
 864 1400 l 2
EndSplineSet
EndChar

StartChar: S
Encoding: 83 83 30
Width: 1133
VWidth: 1872
Flags: HW
AnchorPoint: "top" 777 1400 basechar 0
AnchorPoint: "bottom" 449 -25 basechar 0
LayerCount: 2
Fore
SplineSet
139 509 m 2
 149 509 l 2
 152 509 159 508 157 501 c 0
 149 466 147.804152948 451.793214851 141 427 c 4
 68 161 153 -4 447 -4 c 0
 693 -4 876 106 929 336 c 0
 985 577 772 617 625 680 c 0
 441 759 243 835 299 1078 c 0
 349 1296 525 1434 766 1434 c 0
 1048 1434 1118 1259 1069 1046 c 2
 1051 968 l 2
 1049 961 1045 960 1040 960 c 2
 1030 960 l 2
 1025 960 1019 961 1021 968 c 0
 1027 994 1030.26019618 1006.94047498 1037 1037 c 4
 1087 1260 1015 1404 759 1404 c 0
 556 1404 382 1285 334 1078 c 0
 281 850 478 776 647 708 c 0
 828 634 1021 581 964 336 c 0
 907 90 734 -34 440 -34 c 0
 130 -34 46 148 100 381 c 2
 127 500 l 2
 129 507 136 509 139 509 c 2
EndSplineSet
EndChar

StartChar: T
Encoding: 84 84 31
Width: 1071
VWidth: 1872
Flags: HW
AnchorPoint: "top" 762 1400 basechar 0
AnchorPoint: "bottom" 440 0 basechar 0
LayerCount: 2
Fore
SplineSet
248 1400 m 2
 1226 1400 l 2
 1233 1400 1235 1397 1233 1390 c 2
 1231 1380 l 2
 1229 1373 1226 1370 1219 1370 c 2
 745 1370 l 1
 431 10 l 2
 429 3 426 0 419 0 c 2
 408 0 l 2
 401 0 398 3 400 10 c 2
 714 1370 l 1
 241 1370 l 2
 234 1370 232 1373 234 1380 c 2
 236 1390 l 2
 238 1397 241 1400 248 1400 c 2
EndSplineSet
EndChar

StartChar: U
Encoding: 85 85 32
Width: 1236
VWidth: 1872
Flags: HW
AnchorPoint: "ogonek" 680 0 basechar 0
AnchorPoint: "top" 837 1400 basechar 0
AnchorPoint: "bottom" 515 0 basechar 0
LayerCount: 2
Fore
SplineSet
977 472 m 2
 1189 1390 l 2
 1191 1397 1193 1400 1200 1400 c 2
 1211 1400 l 2
 1218 1400 1221 1397 1219 1390 c 2
 1010 483 l 2
 938 172 826 -34 483 -34 c 0
 149 -34 141 170 226 540 c 2
 422 1390 l 2
 424 1397 427 1400 434 1400 c 2
 445 1400 l 2
 452 1400 455 1397 453 1390 c 2
 254 530 l 2
 182 220 160 -4 485 -4 c 4
 791 -4 910 182 977 472 c 2
EndSplineSet
EndChar

StartChar: V
Encoding: 86 86 33
Width: 1129
VWidth: 1872
Flags: HW
AnchorPoint: "top" 797 1400 basechar 0
AnchorPoint: "bottom" 475 0 basechar 0
LayerCount: 2
Fore
SplineSet
463 46 m 1
 1205 1390 l 2
 1208 1396 1213 1400 1219 1400 c 2
 1239 1400 l 2
 1246 1400 1247 1396 1244 1390 c 2
 472 10 l 2
 469 4 465 0 459 0 c 2
 449 0 l 2
 443 0 440 4 439 10 c 2
 296 1390 l 2
 295 1396 298 1400 305 1400 c 2
 322 1400 l 6
 328 1400 332 1397 332 1390 c 6
 463 46 l 1
EndSplineSet
EndChar

StartChar: W
Encoding: 87 87 34
Width: 1597
VWidth: 1872
Flags: HW
AnchorPoint: "top" 1045 1400 basechar 0
AnchorPoint: "bottom" 723 0 basechar 0
LayerCount: 2
Fore
SplineSet
371 60 m 5
 995 1390 l 2
 998 1396 1001 1400 1007 1400 c 2
 1028 1400 l 2
 1034 1400 1038 1397 1038 1390 c 2
 1074 44 l 5
 1669 1390 l 2
 1672 1397 1676 1400 1682 1400 c 2
 1692 1400 l 2
 1699 1400 1701 1397 1697 1390 c 2
 1091 10 l 2
 1087 3 1083 0 1076 0 c 2
 1055 0 l 2
 1049 0 1046 3 1046 10 c 2
 1010 1363 l 1
 381 10 l 2
 377 3 373 0 367 0 c 2
 351 0 l 2
 344 0 340 3 340 10 c 2
 312 1390 l 2
 312 1397 314 1400 321 1400 c 2
 336 1400 l 2
 342 1400 347 1397 346 1390 c 2
 371 60 l 5
EndSplineSet
EndChar

StartChar: X
Encoding: 88 88 35
Width: 1128
VWidth: 1872
Flags: HW
AnchorPoint: "top" 797 1400 basechar 0
AnchorPoint: "bottom" 475 0 basechar 0
LayerCount: 2
Fore
SplineSet
1177 1400 m 2
 1192 1400 l 2
 1199 1400 1200 1398 1193 1390 c 2
 631 714 l 1
 898 10 l 2
 901 2 900 0 893 0 c 2
 872 0 l 2
 866 0 865 -3 863 5 c 2
 607 689 l 1
 23 10 l 2
 16 2 12 0 6 0 c 2
 -14 0 l 2
 -21 0 -23 2 -15 10 c 2
 594 716 l 1
 333 1390 l 2
 330 1398 331 1400 338 1400 c 2
 358 1400 l 2
 365 1400 369 1398 371 1390 c 2
 617 742 l 5
 1155 1390 l 2
 1162 1398 1171 1400 1177 1400 c 2
EndSplineSet
EndChar

StartChar: Y
Encoding: 89 89 36
Width: 1125
VWidth: 1872
Flags: HW
AnchorPoint: "top" 787 1400 basechar 0
AnchorPoint: "bottom" 460 0 basechar 0
LayerCount: 2
Fore
SplineSet
1214 1400 m 2
 1233 1400 l 2
 1240 1400 1241 1397 1235 1390 c 2
 581 554 l 1
 455 10 l 2
 453 3 450 0 444 0 c 2
 434 0 l 2
 428 0 426 3 428 10 c 2
 554 554 l 1
 277 1390 l 2
 274 1398 276 1400 283 1400 c 2
 296 1400 l 2
 302 1400 306 1397 308 1390 c 2
 574 588 l 5
 1197 1390 l 2
 1203 1397 1208 1400 1214 1400 c 2
EndSplineSet
EndChar

StartChar: Z
Encoding: 90 90 37
Width: 1066
VWidth: 1872
Flags: HW
AnchorPoint: "top" 757 1400 basechar 0
AnchorPoint: "bottom" 435 0 basechar 0
LayerCount: 2
Fore
SplineSet
-94 10 m 2
 1138 1370 l 1
 311 1370 l 2
 304 1370 303 1373 305 1380 c 2
 307 1390 l 2
 309 1397 311 1400 318 1400 c 2
 1205 1400 l 2
 1212 1400 1214 1398 1206 1390 c 2
 -28 30 l 5
 879 30 l 2
 886 30 889 27 887 20 c 2
 884 10 l 2
 882 3 879 0 872 0 c 2
 -93 0 l 2
 -100 0 -102 2 -94 10 c 2
EndSplineSet
EndChar

StartChar: a
Encoding: 97 97 38
Width: 964
VWidth: 1879
Flags: HW
AnchorPoint: "ogonek" 764 0 basechar 0
AnchorPoint: "top" 620 1050 basechar 0
AnchorPoint: "bottom" 429 0 basechar 0
LayerCount: 2
Fore
SplineSet
777 406 m 1
 720 161 547 -33 310 -33 c 4
 111 -33 -18 123 54 434 c 2
 96 614 l 2
 173 946 368 1084 567 1084 c 0
 777 1084 888 884 831 639 c 1
 811 620 l 1
 859 826 797 1054 568 1054 c 0
 367 1054 195.955394642 916.474438812 126 615 c 2
 84 434 l 2
 17 144 127 -3 308 -3 c 0
 563 -3 719 221 766 426 c 1
 777 406 l 1
796 17 m 2
 794 10 l 2
 792 3 789 2 782 1 c 0
 700 -15 678 43 725 247 c 2
 826 686 l 2
 924 1074 l 2
 926 1082 927 1084 934 1084 c 2
 938 1084 l 2
 945 1084 948 1081 946 1074 c 2
 755 247 l 2
 711 56 726 15 789 26 c 0
 794 27 797 23 796 17 c 2
EndSplineSet
EndChar

StartChar: b
Encoding: 98 98 39
Width: 1055
VWidth: 1879
Flags: HW
LayerCount: 2
Fore
SplineSet
342 1450 m 2
 353 1450 l 2
 360 1450 362 1447 360 1440 c 2
 112 364 l 1
 13 -24 l 2
 11 -32 10 -34 3 -34 c 2
 -1 -34 l 2
 -8 -34 -10 -31 -8 -24 c 2
 330 1440 l 2
 332 1447 335 1450 342 1450 c 2
162 644 m 1
 223 908 475 1084 684 1084 c 0
 883 1084 1080 946 1004 616 c 2
 963 436 l 2
 891 123 639 -33 440 -33 c 0
 204 -33 49 157 108 411 c 1
 127 430 l 1
 73 196 205 -4 439 -4 c 4
 620 -4 865 143 932 435 c 2
 974 616 l 2
 1045 924 863 1054 682 1054 c 0
 466 1054 226 858 172 624 c 1
 162 644 l 1
EndSplineSet
EndChar

StartChar: c
Encoding: 99 99 40
Width: 954
VWidth: 1879
Flags: HW
AnchorPoint: "bottom" 397 -25 basechar 0
AnchorPoint: "top" 631 1050 basechar 0
LayerCount: 2
Fore
SplineSet
877 381 m 0
 856 302 817 223 760 154 c 0
 670 45 536 -34 367 -34 c 0
 121 -34 -17 165 50 457 c 2
 81 594 l 2
 148 885 375 1083 621 1083 c 0
 812 1083 939 968 939 854 c 0
 939 788.197265625 920 729 865 670 c 0
 861.523098927 666.270233395 860 662 853 662 c 2
 840 662 l 2
 833 662 828.061523438 666.107421875 831 669 c 0
 896 733 912 792.869140625 912 854 c 0
 912 968 775 1058 615 1058 c 0
 383 1058 169 857 108 594 c 2
 76 456 l 2
 14 188 134 -7 374 -7 c 4
 522 -7 655 67 739 169 c 0
 794 236 832 312 851 382 c 0
 852 386 855 389 862 389 c 2
 870 389 l 2
 877 389 878 386 877 381 c 0
EndSplineSet
EndChar

StartChar: d
Encoding: 100 100 41
Width: 1055
VWidth: 1879
Flags: HW
LayerCount: 2
Fore
SplineSet
897 408 m 1
 840 162 598 -34 360 -34 c 4
 162 -34 -18 122 54 435 c 2
 96 615 l 2
 172 946 427 1084 626 1084 c 0
 834 1084 1008 888 951 642 c 1
 932 623 l 1
 980 829 852 1054 624 1054 c 0
 443 1054 197 924 126 615 c 2
 84 435 l 2
 17 144 182 -4 363 -4 c 4
 618 -4 839 221 887 427 c 1
 897 408 l 1
1150 1440 m 2
 820 10 l 2
 818 3 819 0 812 0 c 2
 800 0 l 2
 793 0 794 3 796 10 c 2
 877 359 l 1
 878 390 l 1
 1120 1440 l 2
 1122 1447 1126 1450 1133 1450 c 2
 1143 1450 l 2
 1150 1450 1152 1447 1150 1440 c 2
EndSplineSet
EndChar

StartChar: e
Encoding: 101 101 42
Width: 1044
VWidth: 1879
Flags: HW
AnchorPoint: "ogonek" 668 20 basechar 0
AnchorPoint: "bottom" 482 0 basechar 0
AnchorPoint: "top" 675 1050 basechar 0
LayerCount: 2
Fore
SplineSet
918 332 m 0
 905 292 887.245464781 254.859601548 866 218 c 4
 783 74 637 -34 419 -34 c 0
 191 -34 14 135 84 438 c 2
 124 612 l 2
 192 906 446 1084 653 1084 c 0
 905 1084 1006 898 987 682 c 0
 980 608 973 571 964 532 c 0
 963 527 959 525 952 525 c 2
 118 525 l 1
 125 553 l 1
 941 553 l 1
 1014 886 876 1059 659 1059 c 0
 452 1059 216 876 155 613 c 2
 114 438 l 2
 53 175 181 -9 424 -9 c 4
 640 -9 825 132 885 335 c 4
 886.168673201 338.954010995 892 341 899 341 c 2
 912 341 l 2
 919 341 920 338 918 332 c 0
EndSplineSet
EndChar

StartChar: f
Encoding: 102 102 43
Width: 599
VWidth: 1879
Flags: HW
LayerCount: 2
Fore
SplineSet
678 1025 m 2
 186 1025 l 2
 179 1025 176 1028 178 1035 c 2
 179 1040 l 2
 181 1047 184 1050 191 1050 c 2
 683 1050 l 2
 690 1050 693 1047 691 1040 c 2
 690 1035 l 2
 688 1028 685 1025 678 1025 c 2
398 1194 m 2
 445 1397 500 1509 772 1442 c 0
 780.792567323 1439.83418378 783 1438 781 1431 c 2
 780 1426 l 2
 778 1419 774.695823832 1415.03081539 762 1418 c 0
 514 1476 477 1383 433 1194 c 2
 76 -350 l 6
 74 -357 71 -360 64 -360 c 6
 49 -360 l 6
 42 -360 39 -357 41 -350 c 6
 398 1194 l 2
EndSplineSet
EndChar

StartChar: g
Encoding: 103 103 44
Width: 833
VWidth: 1879
Flags: HW
AnchorPoint: "top" 511 1100 basechar 0
LayerCount: 2
Fore
SplineSet
937 1250 m 0
 879 1059 771 1012 728 1011 c 1
 704 1021 l 1
 756 1021 855 1072 907 1251 c 0
 908 1257 913 1260 920 1260 c 2
 930 1260 l 2
 937 1260 940 1257 937 1250 c 0
474 188 m 2
 624 175 689 82 659 -46 c 0
 618 -224 449 -360 182 -360 c 2
 160 -360 l 6
 -25 -360 -178 -270 -135 -84 c 0
 -101 63 37 174 171 204 c 1
 180 187 l 1
 47 157 -71 39 -102 -96 c 0
 -142 -269 20 -330 157 -330 c 2
 179 -330 l 2
 418 -330 586 -195 622 -39 c 0
 647 68 607 145 458 158 c 2
 239 178 l 2
 103 190 20 225 40 310 c 0
 64 413 199 446 367 494 c 1
 367 484 l 1
 233 427 92 406 70 312 c 0
 54 242 146 217 247 208 c 2
 474 188 l 2
765 759 m 2
 773 791 l 2
 811 954 699 1054 533 1054 c 0
 362 1054 206 947 170 791 c 2
 162 759 l 2
 130 622 235 504 406 504 c 0
 572 504 732 614 765 759 c 2
795 751 m 2
 761 602 595 474 398 474 c 0
 201 474 98 620 132 769 c 2
 140 801 l 2
 179 969 342 1084 539 1084 c 0
 736 1084 842 951 803 783 c 2
 795 751 l 2
EndSplineSet
EndChar

StartChar: h
Encoding: 104 104 45
Width: 953
VWidth: 1879
Flags: HW
AnchorPoint: "bottom" 375 0 basechar 0
AnchorPoint: "top" 356 1450 basechar 0
LayerCount: 2
Fore
SplineSet
347 1450 m 2
 358 1450 l 2
 365 1450 366 1447 364 1440 c 2
 34 10 l 2
 32 3 30 0 23 0 c 2
 12 0 l 2
 5 0 2 3 4 10 c 2
 334 1440 l 2
 336 1447 340 1450 347 1450 c 2
159 634 m 1
 211 859 411 1084 637 1084 c 4
 845 1084 934 964 882 740 c 2
 713 10 l 2
 711 3 709 0 702 0 c 2
 691 0 l 2
 684 0 681 3 683 10 c 2
 852 740 l 2
 899 944 826 1059 640 1059 c 4
 420 1059 226 838 178 632 c 1
 159 634 l 1
EndSplineSet
EndChar

StartChar: i
Encoding: 105 105 46
Width: 261
VWidth: 1879
Flags: HW
AnchorPoint: "bottom" 5 0 basechar 0
AnchorPoint: "ogonek" 5 0 basechar 0
LayerCount: 2
Fore
SplineSet
349 1401 m 2
 308 1220 l 2
 306 1213 302 1210 295 1210 c 2
 284 1210 l 2
 277 1210 276 1213 278 1220 c 2
 319 1401 l 2
 321 1408 324 1411 331 1411 c 2
 342 1411 l 2
 349 1411 351 1408 349 1401 c 2
266 1040 m 2
 28 10 l 2
 26 3 23 0 16 0 c 2
 5 0 l 2
 -2 0 -4 3 -2 10 c 2
 236 1040 l 2
 238 1047 240 1050 247 1050 c 2
 258 1050 l 2
 265 1050 268 1047 266 1040 c 2
EndSplineSet
EndChar

StartChar: j
Encoding: 106 106 47
Width: 261
VWidth: 1879
Flags: HW
LayerCount: 2
Fore
SplineSet
12 -59 m 2
 -37 -271 -110 -371 -209 -371 c 4
 -338 -371 -269 -200 -204 -107 c 4
 -200.914996911 -102.586072504 -199 -100 -192 -100 c 2
 -186 -100 l 2
 -179 -100 -175.430174631 -103.339945687 -178 -107 c 4
 -244 -201 -291 -340 -201 -340 c 0
 -103 -340 -47 -185 -18 -60 c 2
 236 1040 l 2
 238 1047 241 1050 248 1050 c 2
 258 1050 l 2
 265 1050 268 1047 266 1040 c 2
 12 -59 l 2
350 1402 m 2
 307 1219 l 2
 305 1212 302 1210 295 1210 c 2
 285 1210 l 2
 278 1210 275 1212 277 1219 c 2
 320 1402 l 2
 322 1409 325 1412 332 1412 c 2
 342 1412 l 2
 349 1412 352 1409 350 1402 c 2
EndSplineSet
EndChar

StartChar: k
Encoding: 107 107 48
Width: 849
VWidth: 1879
Flags: HW
LayerCount: 2
Fore
SplineSet
343 1450 m 2
 353 1450 l 2
 360 1450 362 1447 360 1440 c 2
 30 10 l 2
 28 3 25 0 18 0 c 2
 8 0 l 2
 1 0 -2 3 0 10 c 2
 330 1440 l 2
 332 1447 336 1450 343 1450 c 2
100 406 m 1
 847 1040 l 6
 856 1048 859 1050 866 1050 c 6
 898 1050 l 2
 904 1050 905 1048 895 1040 c 2
 104 373 l 1
 100 406 l 1
364 615 m 1
 390 637 l 1
 728 10 l 2
 731 3 729 0 722 0 c 2
 703 0 l 2
 696 0 693 3 691 10 c 2
 364 615 l 1
EndSplineSet
EndChar

StartChar: l
Encoding: 108 108 49
Width: 280
VWidth: 1879
Flags: HW
LayerCount: 2
Fore
SplineSet
350 1450 m 2
 360 1450 l 2
 367 1450 369 1447 367 1440 c 2
 37 10 l 2
 35 3 32 0 25 0 c 2
 15 0 l 2
 8 0 5 3 7 10 c 2
 337 1440 l 2
 339 1447 343 1450 350 1450 c 2
EndSplineSet
EndChar

StartChar: m
Encoding: 109 109 50
Width: 1494
VWidth: 1879
Flags: HW
LayerCount: 2
Fore
SplineSet
769 634 m 1
 845 964 1052 1084 1215 1084 c 4
 1377 1084 1473 965 1428 769 c 2
 1252 10 l 2
 1250 3 1247 0 1240 0 c 2
 1229 0 l 2
 1222 0 1220 3 1222 10 c 2
 1398 769 l 2
 1440 953 1357 1059 1213 1059 c 0
 1060 1059 855 924 788 632 c 1
 769 634 l 1
256 1050 m 2
 258 1050 l 2
 265 1050 268 1047 266 1040 c 2
 195 732 l 1
 197 705 l 1
 36 10 l 2
 34 3 32 0 26 0 c 2
 15 0 l 2
 8 0 5 3 7 10 c 2
 245 1040 l 2
 247 1047 250 1050 256 1050 c 2
167 653 m 1
 232 935 445 1084 607 1084 c 0
 769 1084 865 965 820 769 c 2
 644 10 l 2
 642 3 639 0 632 0 c 2
 622 0 l 2
 615 0 612 3 614 10 c 2
 790 769 l 2
 830 944 750 1059 606 1059 c 0
 453 1059 243 905 180 632 c 1
 167 653 l 1
EndSplineSet
EndChar

StartChar: n
Encoding: 110 110 51
Width: 953
VWidth: 1879
Flags: HW
AnchorPoint: "bottom" 375 0 basechar 0
AnchorPoint: "top" 638 1050 basechar 0
LayerCount: 2
Fore
SplineSet
254 1050 m 2
 261 1050 l 2
 268 1050 270 1047 268 1040 c 2
 185 679 l 1
 183 652 l 1
 34 10 l 2
 32 3 30 0 23 0 c 2
 12 0 l 2
 5 0 2 3 4 10 c 2
 242 1040 l 2
 244 1047 247 1050 254 1050 c 2
159 634 m 1
 211 859 416 1084 642 1084 c 4
 850 1084 934 964 882 740 c 2
 713 10 l 2
 711 3 709 0 702 0 c 2
 691 0 l 2
 684 0 681 3 683 10 c 2
 852 740 l 2
 899 944 831 1059 640 1059 c 0
 420 1059 226 838 178 632 c 1
 159 634 l 1
EndSplineSet
EndChar

StartChar: o
Encoding: 111 111 52
Width: 1071
VWidth: 1879
Flags: HW
AnchorPoint: "top" 680 1050 basechar 0
AnchorPoint: "bottom" 437 0 basechar 0
LayerCount: 2
Fore
SplineSet
74 456 m 2
 106 595 l 2
 172 879 404 1084 661 1084 c 4
 918 1084 1067 879 1001 595 c 2
 969 456 l 2
 903 172 670 -34 413 -34 c 0
 156 -34 8 172 74 456 c 2
99 455 m 2
 38 192 175 -9 414 -9 c 0
 653 -9 882 192 943 455 c 2
 976 596 l 2
 1037 859 899 1059 660 1059 c 0
 421 1059 193 859 132 596 c 2
 99 455 l 2
EndSplineSet
EndChar

StartChar: p
Encoding: 112 112 53
Width: 1055
VWidth: 1879
Flags: HW
LayerCount: 2
Fore
SplineSet
167 643 m 5
 228 908 472 1084 682 1084 c 0
 880 1084 1081 947 1004 615 c 2
 963 436 l 2
 891 124 645 -34 446 -34 c 0
 211 -34 58 153 117 408 c 1
 127 427 l 1
 73 193 212 -4 446 -4 c 0
 627 -4 864 145 931 435 c 2
 973 616 l 2
 1045 926 862 1054 681 1054 c 0
 465 1054 226 858 172 624 c 1
 167 643 l 5
-83 -352 m 2
 238 1040 l 2
 240 1047 239 1050 246 1050 c 2
 258 1050 l 2
 265 1050 265 1047 263 1040 c 2
 183 691 l 1
 180 660 l 1
 -53 -352 l 2
 -55 -359 -59 -362 -66 -362 c 2
 -77 -362 l 2
 -84 -362 -85 -359 -83 -352 c 2
EndSplineSet
EndChar

StartChar: q
Encoding: 113 113 54
Width: 1055
VWidth: 1879
Flags: HW
LayerCount: 2
Fore
SplineSet
725 -360 m 2
 715 -360 l 2
 708 -360 705 -357 707 -350 c 2
 946 686 l 1
 1044 1074 l 2
 1046 1082 1047 1084 1054 1084 c 2
 1058 1084 l 2
 1065 1084 1068 1081 1066 1074 c 2
 737 -350 l 2
 735 -357 732 -360 725 -360 c 2
897 406 m 1
 840 161 607 -33 360 -33 c 0
 161 -33 -18 123 54 434 c 2
 96 614 l 2
 173 946 416 1084 615 1084 c 0
 845 1084 998 884 951 639 c 1
 931 620 l 1
 979 826 847 1054 618 1054 c 0
 437 1054 198 926 126 615 c 2
 84 434 l 2
 17 144 177 -3 358 -3 c 4
 613 -3 839 221 886 426 c 1
 897 406 l 1
EndSplineSet
EndChar

StartChar: r
Encoding: 114 114 55
Width: 694
VWidth: 1879
Flags: HW
AnchorPoint: "top" 467 1050 basechar 0
AnchorPoint: "bottom" 44 0 basechar 0
LayerCount: 2
Fore
SplineSet
193 713 m 1
 199 770 l 1
 229 900 374 1084 546 1084 c 4
 745 1084 736 863 578 670 c 0
 575 666 573 663 566 663 c 2
 564 663 l 2
 557 663 554 667 556 670 c 0
 729 914 678 1054 539 1054 c 4
 401 1054 238 908 193 713 c 1
249 1050 m 10
 255 1050 l 2
 262 1050 265 1047 263 1040 c 2
 198 756 l 1
 200 747 l 1
 30 10 l 2
 28 3 25 0 18 0 c 2
 7 0 l 2
 0 0 -2 3 0 10 c 2
 238 1040 l 2
 240 1047 242 1050 249 1050 c 10
EndSplineSet
EndChar

StartChar: s
Encoding: 115 115 56
Width: 912
VWidth: 1879
Flags: HW
AnchorPoint: "top" 580 1050 basechar 0
AnchorPoint: "bottom" 361 -25 basechar 0
LayerCount: 2
Fore
SplineSet
36 360 m 2
 46 360 l 2
 53 360 56 358 54 351 c 0
 46 316 41 284 38 254 c 0
 20 47 185 -6 351 -6 c 4
 518 -6 713 91 753 265 c 4
 847 672 79 400 175 817 c 0
 214 987 359 1084 568 1084 c 0
 740 1084 890 999 867 814 c 0
 865 791 859 766 853 739 c 0
 851 732 848 730 841 730 c 2
 835 730 l 2
 829 730 825 733 827 740 c 0
 833 765 837 787 840 810 c 0
 862 978 723 1059 567 1059 c 0
 366 1059 239 963 205 816 c 0
 116 431 885 696 785 262 c 0
 743 82 558 -35 345 -35 c 0
 183 -35 -12 22 6 248 c 0
 8 280 16 316 24 352 c 0
 26 359 29 360 36 360 c 2
EndSplineSet
EndChar

StartChar: t
Encoding: 116 116 57
Width: 604
VWidth: 1879
Flags: HW
AnchorPoint: "bottom" 237 0 basechar 0
LayerCount: 2
Fore
SplineSet
668 1025 m 2
 157 1025 l 2
 150 1025 147 1028 149 1035 c 2
 150 1040 l 2
 152 1047 155 1050 162 1050 c 2
 673 1050 l 2
 680 1050 683 1047 681 1040 c 2
 680 1035 l 2
 678 1028 675 1025 668 1025 c 2
448 10 m 2
 448 8 l 2
 446 1 443 0 436 -1 c 0
 150 -37 132 43 179 247 c 2
 443 1391 l 6
 445 1398 448 1400 455 1400 c 6
 460 1400 l 6
 467 1400 470 1398 468 1391 c 6
 204 247 l 2
 160 56 174 -12 441 19 c 0
 446 20 449 16 448 10 c 2
EndSplineSet
EndChar

StartChar: u
Encoding: 117 117 58
Width: 953
VWidth: 1879
Flags: HW
AnchorPoint: "ogonek" 721 0 basechar 0
AnchorPoint: "bottom" 395 0 basechar 0
AnchorPoint: "top" 608 1050 basechar 0
LayerCount: 2
Fore
SplineSet
701 0 m 2
 695 0 l 2
 688 0 685 3 687 10 c 2
 771 371 l 1
 773 398 l 1
 921 1040 l 2
 923 1047 926 1050 933 1050 c 2
 943 1050 l 2
 950 1050 953 1047 951 1040 c 2
 713 10 l 2
 711 3 708 0 701 0 c 2
797 416 m 1
 745 191 545 -34 319 -34 c 4
 111 -34 22 85 74 310 c 2
 242 1040 l 2
 244 1047 247 1050 254 1050 c 2
 265 1050 l 2
 272 1050 274 1047 272 1040 c 2
 104 310 l 2
 57 106 124 -9 315 -9 c 0
 535 -9 730 212 778 418 c 1
 797 416 l 1
EndSplineSet
EndChar

StartChar: v
Encoding: 118 118 59
Width: 855
VWidth: 1879
Flags: HW
LayerCount: 2
Fore
SplineSet
310 39 m 5
 919 1040 l 6
 923 1047 928 1050 935 1050 c 6
 950 1050 l 2
 957 1050 959 1047 954 1040 c 2
 326 10 l 2
 321 2 317 0 311 0 c 2
 296 0 l 2
 290 0 288 3 287 10 c 2
 141 1040 l 2
 141 1047 142 1050 149 1050 c 2
 154 1050 l 6
 161 1050 165 1047 165 1040 c 6
 310 39 l 5
EndSplineSet
EndChar

StartChar: w
Encoding: 119 119 60
Width: 1358
VWidth: 1879
Flags: HW
LayerCount: 2
Fore
SplineSet
870 48 m 5
 1413 1040 l 2
 1417 1047 1419 1050 1426 1050 c 2
 1437 1050 l 2
 1444 1050 1445 1047 1441 1040 c 2
 879 10 l 2
 875 3 871 0 864 0 c 2
 858 0 l 2
 852 0 848 2 848 10 c 2
 804 1009 l 1
 274 10 l 2
 270 2 266 0 260 0 c 2
 251 0 l 2
 244 0 240 2 240 10 c 2
 157 1040 l 2
 157 1047 159 1050 166 1050 c 2
 176 1050 l 2
 183 1050 187 1047 187 1040 c 2
 265 48 l 5
 795 1040 l 2
 799 1047 801 1050 807 1050 c 2
 822 1050 l 2
 828 1050 831 1047 831 1040 c 2
 870 48 l 5
EndSplineSet
EndChar

StartChar: x
Encoding: 120 120 61
Width: 890
VWidth: 1879
Flags: HW
LayerCount: 2
Fore
SplineSet
-53 0 m 2
 -72 0 l 2
 -79 0 -80 3 -73 10 c 2
 440 550 l 1
 179 1040 l 2
 176 1048 178 1050 185 1050 c 2
 199 1050 l 2
 205 1050 209 1048 211 1040 c 2
 458 564 l 5
 915 1040 l 2
 921 1048 926 1050 932 1050 c 2
 949 1050 l 2
 956 1050 957 1047 950 1040 c 2
 471 547 l 5
 727 10 l 2
 730 2 728 0 721 0 c 2
 707 0 l 2
 700 0 698 2 696 10 c 2
 452 529 l 1
 -37 10 l 2
 -43 3 -47 0 -53 0 c 2
EndSplineSet
EndChar

StartChar: y
Encoding: 121 121 62
Width: 878
VWidth: 1879
Flags: HW
AnchorPoint: "top" 577 1050 basechar 0
LayerCount: 2
Fore
SplineSet
328 30 m 1
 923 1040 l 2
 927 1047 930 1050 937 1050 c 2
 952 1050 l 2
 959 1050 960 1047 956 1040 c 2
 315 -59 l 2
 205 -248 90 -371 -9 -371 c 0
 -138 -371 -68 -200 -24 -107 c 0
 -22 -102 -19 -100 -12 -100 c 2
 -6 -100 l 2
 1 -100 4 -103 2 -107 c 0
 -34 -201 -93 -340 -11 -340 c 4
 93 -340 202 -197 303 -16 c 1
 158 1040 l 2
 157 1047 159 1050 166 1050 c 2
 177 1050 l 2
 184 1050 186 1046 187 1040 c 2
 328 30 l 1
EndSplineSet
EndChar

StartChar: z
Encoding: 122 122 63
Width: 857
VWidth: 1879
Flags: HW
AnchorPoint: "top" 573 1050 basechar 0
LayerCount: 2
Fore
SplineSet
-60 10 m 2
 876 1020 l 1
 234 1020 l 2
 225 1020 226 1021 228 1030 c 2
 230 1040 l 2
 232 1049 232 1050 241 1050 c 2
 939 1050 l 2
 946 1050 948 1048 940 1040 c 2
 6 30 l 5
 714 30 l 2
 721 30 723 27 721 20 c 2
 718 10 l 2
 716 3 714 0 707 0 c 2
 -59 0 l 2
 -66 0 -68 2 -60 10 c 2
EndSplineSet
EndChar

StartChar: comma
Encoding: 44 44 65
Width: 540
VWidth: 1920
Flags: HMW
LayerCount: 2
Fore
SplineSet
68 -210 m 6
 66 -210 l 6
 59 -210 58 -208 62 -200 c 6
 147 0 l 261
 140 0 l 6
 131 0 130 1 132 10 c 6
 176 200 l 6
 178 207 181 210 188 210 c 6
 208 210 l 6
 215 210 218 207 216 200 c 6
 175 20 l 6
 173 13 172 7 168 0 c 6
 80 -200 l 6
 76 -209 74 -210 68 -210 c 6
EndSplineSet
EndChar

StartChar: exclam
Encoding: 33 33 67
Width: 540
VWidth: 1920
Flags: HMW
LayerCount: 2
Fore
SplineSet
160 0 m 2
 140 0 l 2
 133 0 130 3 132 10 c 2
 176 200 l 2
 178 207 181 210 188 210 c 2
 208 210 l 2
 215 210 218 207 216 200 c 2
 172 10 l 2
 170 3 167 0 160 0 c 2
354 950 m 2
 467 1440 l 2
 469 1447 473 1450 480 1450 c 2
 490 1450 l 2
 497 1450 499 1447 497 1440 c 2
 384 950 l 2
 382 943 363 857 360 850 c 6
 263 440 l 6
 261 433 257 430 250 430 c 2
 248 430 l 2
 241 430 239 433 241 440 c 2
 332 850 l 2
 334 857 352 943 354 950 c 2
EndSplineSet
EndChar

StartChar: quotesingle
Encoding: 39 39 70
Width: 370
VWidth: 1920
Flags: HMW
LayerCount: 2
Fore
SplineSet
187 930 m 2
 184 930 l 2
 177 930 174 933 173 940 c 2
 171 1150 l 6
 171 1187 170 1203 170 1230 c 6
 170 1410 l 2
 170 1417 173 1420 180 1420 c 2
 190 1420 l 2
 197 1420 200 1417 200 1410 c 2
 200 1230 l 6
 200 1203 199 1187 199 1150 c 6
 197 940 l 2
 196 933 194 930 187 930 c 2
EndSplineSet
EndChar

StartChar: question
Encoding: 63 63 71
Width: 1080
VWidth: 1920
Flags: HMW
LayerCount: 2
Fore
SplineSet
470 0 m 6
 450 0 l 6
 443 0 440 3 442 10 c 6
 486 200 l 6
 488 207 491 210 498 210 c 6
 518 210 l 6
 525 210 528 207 526 200 c 6
 482 10 l 6
 480 3 477 0 470 0 c 6
547 400 m 6
 537 400 l 6
 530 400 527 403 528 409 c 4
 619 731 954 778 1020 1063 c 262
 1028 1098 l 262
 1081 1328 1002 1455 805 1455 c 260
 585 1455 434 1295 378 1052 c 262
 357 962 l 6
 355 955 352 952 345 952 c 6
 335 952 l 6
 328 952 325 955 327 962 c 6
 348 1052 l 262
 409 1316 565 1485 812 1485 c 260
 1029 1485 1118 1353 1060 1103 c 262
 1054 1078 l 262
 979 755 649 713 561 408 c 4
 560 403 554 400 547 400 c 6
EndSplineSet
EndChar

StartChar: parenleft
Encoding: 40 40 72
Width: 535
VWidth: 2048
Flags: HMW
LayerCount: 2
Fore
SplineSet
203 838 m 262
 297 1243 480 1561 743 1618 c 4
 751 1620 754 1617 752 1610 c 6
 751 1609 l 6
 749 1602 746 1597 739 1595 c 4
 504 1524 331 1239 238 838 c 262
 140 412 l 262
 47 11 88 -274 291 -345 c 4
 298 -347 299 -352 297 -359 c 6
 297 -360 l 6
 295 -367 292 -370 284 -368 c 4
 47 -311 11 7 105 412 c 262
 203 838 l 262
EndSplineSet
EndChar

StartChar: parenright
Encoding: 41 41 73
Width: 535
VWidth: 2048
Flags: HMW
LayerCount: 2
Fore
SplineSet
380 412 m 258
 286 7 104 -311 -159 -368 c 0
 -167 -370 -170 -367 -168 -360 c 2
 -168 -359 l 2
 -166 -352 -163 -347 -156 -345 c 0
 79 -274 252 11 345 412 c 258
 443 838 l 258
 536 1239 495 1524 292 1595 c 0
 285 1597 284 1602 286 1609 c 2
 287 1610 l 2
 289 1617 292 1620 300 1618 c 0
 537 1561 572 1243 478 838 c 258
 380 412 l 258
EndSplineSet
EndChar

StartChar: asterisk
Encoding: 42 42 74
Width: 914
VWidth: 2048
Flags: HMW
LayerCount: 2
Fore
SplineSet
573 1015 m 257
 572 1025 l 257
 928 1145 l 2
 934 1147 943 1149 949 1151 c 2
 1001 1165 l 2
 1008 1167 1011 1165 1011 1158 c 2
 1012 1148 l 2
 1012 1141 1009 1137 1003 1135 c 2
 952 1117 l 2
 946 1115 937 1113 931 1111 c 2
 573 1015 l 257
568 1017 m 257
 577 1023 l 257
 729 747 l 2
 732 742 735 737 738 731 c 2
 756 690 l 2
 759 684 757 679 750 675 c 2
 740 669 l 2
 733 665 729 666 726 671 c 2
 704 710 l 2
 701 715 699 720 696 726 c 2
 568 1017 l 257
569 1023 m 257
 576 1017 l 257
 314 726 l 2
 309 720 303 715 298 710 c 2
 258 671 l 2
 253 666 247 665 242 669 c 2
 236 675 l 2
 231 679 231 684 236 690 c 2
 274 731 l 2
 279 737 284 742 289 747 c 2
 569 1023 l 257
576 1025 m 257
 569 1015 l 257
 255 1111 l 2
 249 1113 244 1115 238 1117 c 2
 195 1135 l 2
 189 1137 187 1141 191 1148 c 2
 197 1158 l 2
 201 1165 205 1167 212 1165 c 2
 257 1151 l 2
 263 1149 268 1147 274 1145 c 2
 576 1025 l 257
577 1020 m 257
 567 1020 l 257
 635 1370 l 2
 637 1377 638 1383 640 1390 c 2
 653 1440 l 2
 655 1447 660 1450 667 1450 c 2
 677 1450 l 2
 684 1450 687 1447 685 1440 c 2
 676 1390 l 2
 674 1383 673 1377 671 1370 c 2
 577 1020 l 257
EndSplineSet
EndChar

StartChar: at
Encoding: 64 64 75
Width: 1990
VWidth: 1920
Flags: HMW
LayerCount: 2
Fore
SplineSet
1269 492 m 261
 1202 202 1047 40 850 40 c 256
 683 40 562 157 640 497 c 258
 647 528 l 258
 721 848 891 985 1058 985 c 256
 1265 985 1345 823 1278 533 c 257
 1258 533 l 257
 1316 783 1248 955 1051 955 c 256
 904 955 748 833 676 523 c 258
 669 492 l 258
 597 182 710 70 857 70 c 256
 1044 70 1191 242 1249 492 c 257
 1269 492 l 261
1153 -255 m 0
 1071 -315 942 -360 782 -360 c 256
 255 -360 63 13 174 493 c 258
 195 583 l 258
 313 1093 739 1435 1236 1435 c 256
 1803 1435 1926 1024 1836 633 c 258
 1815 543 l 258
 1732 183 1566 40 1379 40 c 256
 1172 40 1178 185 1229 405 c 258
 1272 595 l 257
 1363 975 l 2
 1364 980 1374 985 1381 985 c 2
 1382 985 l 2
 1389 985 1392 982 1390 975 c 2
 1259 405 l 258
 1214 211 1199 70 1386 70 c 256
 1603 70 1730 303 1785 543 c 258
 1806 633 l 258
 1891 1003 1776 1405 1229 1405 c 256
 742 1405 331 1043 227 593 c 258
 202 483 l 258
 100 43 262 -330 789 -330 c 256
 951 -330 1062 -282 1147 -225 c 0
 1155 -219 1158 -221 1159 -228 c 2
 1161 -237 l 2
 1162 -244 1161 -249 1153 -255 c 0
EndSplineSet
EndChar

StartChar: dollar
Encoding: 36 36 76
Width: 1110
VWidth: 1920
Flags: HMW
LayerCount: 2
Fore
SplineSet
137 508 m 2
 152 508 l 2
 155 508 162 507 160 500 c 2
 144 430 l 2
 90 196 159 -5 439 -5 c 256
 707 -5 851 164 893 345 c 256
 927 492 864 615 576 684 c 256
 319 746 254 885 295 1063 c 256
 348 1293 514 1435 751 1435 c 256
 1025 1435 1090 1256 1040 1041 c 2
 1024 971 l 2
 1022 964 1017 963 1012 963 c 2
 997 963 l 2
 992 963 987 964 989 971 c 2
 1003 1031 l 2
 1050 1236 989 1405 744 1405 c 256
 537 1405 384 1283 333 1063 c 256
 296 902 349 774 593 715 c 256
 876 647 969 516 930 348 c 256
 885 151 741 -35 432 -35 c 256
 124 -35 54 183 108 419 c 2
 126 499 l 2
 128 506 134 508 137 508 c 2
792 1590 m 2
 792 1590 l 6
 799 1590 802 1587 800 1580 c 6
 393 -180 l 6
 391 -187 388 -190 381 -190 c 6
 381 -190 l 2
 374 -190 371 -187 373 -180 c 2
 780 1580 l 2
 782 1587 785 1590 792 1590 c 2
EndSplineSet
EndChar

StartChar: numbersign
Encoding: 35 35 77
Width: 1300
VWidth: 1920
Flags: HMW
LayerCount: 2
Fore
SplineSet
66 460 m 2
 1126 460 l 2
 1133 460 1136 457 1134 450 c 2
 1132 440 l 2
 1130 433 1127 430 1119 430 c 2
 59 430 l 2
 52 430 50 433 52 440 c 2
 54 450 l 2
 56 457 59 460 66 460 c 2
282 1050 m 2
 1342 1050 l 2
 1349 1050 1352 1047 1350 1040 c 2
 1348 1030 l 2
 1346 1023 1342 1020 1335 1020 c 2
 275 1020 l 2
 268 1020 266 1023 268 1030 c 2
 270 1040 l 2
 272 1047 275 1050 282 1050 c 2
1193 1400 m 6
 1203 1400 l 2
 1213 1400 1213 1397 1209 1390 c 2
 564 10 l 2
 560 3 560 0 550 0 c 2
 540 0 l 2
 530 0 530 3 534 10 c 2
 1179 1390 l 6
 1183 1397 1183 1400 1193 1400 c 6
813 1400 m 2
 823 1400 l 2
 830 1400 833 1397 829 1390 c 2
 184 10 l 2
 180 3 177 0 170 0 c 2
 160 0 l 2
 153 0 150 3 154 10 c 2
 799 1390 l 2
 803 1397 806 1400 813 1400 c 2
EndSplineSet
EndChar

StartChar: slash
Encoding: 47 47 78
Width: 840
VWidth: 2048
Flags: HMW
LayerCount: 2
Fore
SplineSet
947 1390 m 2
 -42 -90 l 2
 -48 -99 -51 -100 -58 -100 c 2
 -68 -100 l 6
 -75 -100 -78 -99 -72 -90 c 6
 917 1390 l 2
 923 1399 927 1400 933 1400 c 2
 943 1400 l 2
 950 1400 953 1399 947 1390 c 2
EndSplineSet
EndChar

StartChar: percent
Encoding: 37 37 79
Width: 1755
VWidth: 2048
Flags: HMW
LayerCount: 2
Fore
SplineSet
230 1083 m 262
 238 1118 l 262
 282 1308 469 1435 646 1435 c 260
 823 1435 962 1308 918 1118 c 262
 910 1083 l 262
 866 893 669 765 492 765 c 260
 315 765 186 893 230 1083 c 262
265 1083 m 262
 226 913 344 805 501 805 c 260
 668 805 836 913 875 1083 c 262
 883 1118 l 262
 922 1288 804 1395 637 1395 c 260
 480 1395 312 1288 273 1118 c 262
 265 1083 l 262
920 283 m 262
 928 318 l 262
 972 508 1160 635 1337 635 c 260
 1514 635 1652 508 1608 318 c 262
 1600 283 l 262
 1556 93 1359 -35 1182 -35 c 260
 1005 -35 876 93 920 283 c 262
955 283 m 262
 916 113 1034 5 1191 5 c 260
 1348 5 1526 113 1565 283 c 262
 1573 318 l 262
 1612 488 1484 595 1327 595 c 260
 1170 595 1002 488 963 318 c 262
 955 283 l 262
1580 1390 m 6
 298 10 l 6
 292 3 287 0 280 0 c 6
 260 0 l 6
 253 0 252 3 258 10 c 6
 1540 1390 l 6
 1546 1397 1551 1400 1558 1400 c 6
 1578 1400 l 6
 1585 1400 1586 1397 1580 1390 c 6
EndSplineSet
EndChar

StartChar: hyphen
Encoding: 45 45 80
Width: 570
VWidth: 1920
Flags: HMW
LayerCount: 2
Fore
SplineSet
60 605 m 14
 63 620 l 22
 65 627 68 630 75 630 c 14
 545 630 l 22
 552 630 555 627 553 620 c 14
 550 605 l 22
 548 598 544 595 537 595 c 14
 67 595 l 22
 60 595 58 598 60 605 c 14
EndSplineSet
EndChar

StartChar: underscore
Encoding: 95 95 81
Width: 900
VWidth: 1920
Flags: HMW
LayerCount: 2
Fore
SplineSet
-126 -25 m 14
 -122 -10 l 18
 -120 -3 -117 0 -110 0 c 10
 770 0 l 18
 777 0 780 -3 778 -10 c 10
 774 -25 l 22
 772 -32 769 -35 762 -35 c 14
 -118 -35 l 22
 -125 -35 -128 -32 -126 -25 c 14
EndSplineSet
EndChar

StartChar: plus
Encoding: 43 43 82
Width: 1040
VWidth: 1920
Flags: HMW
LayerCount: 2
Fore
SplineSet
83 685 m 14
 87 700 l 22
 89 707 92 710 99 710 c 14
 1029 710 l 22
 1036 710 1039 707 1037 700 c 14
 1033 685 l 22
 1031 678 1028 675 1021 675 c 14
 91 675 l 22
 84 675 81 678 83 685 c 14
670 1190 m 10
 680 1190 l 18
 687 1190 689 1187 687 1180 c 10
 457 180 l 18
 455 173 451 170 444 170 c 10
 434 170 l 18
 427 170 425 173 427 180 c 10
 657 1180 l 18
 659 1187 663 1190 670 1190 c 10
EndSplineSet
EndChar

StartChar: equal
Encoding: 61 61 83
Width: 1180
VWidth: 1920
Flags: HMW
LayerCount: 2
Fore
SplineSet
110 345 m 14
 111 350 l 22
 113 357 116 360 123 360 c 14
 983 360 l 22
 990 360 993 357 991 350 c 14
 990 345 l 22
 988 338 984 335 977 335 c 14
 117 335 l 22
 110 335 108 338 110 345 c 14
179 645 m 10
 180 650 l 18
 182 657 185 660 192 660 c 10
 1052 660 l 18
 1059 660 1062 657 1060 650 c 10
 1059 645 l 18
 1057 638 1054 635 1047 635 c 10
 187 635 l 18
 180 635 177 638 179 645 c 10
EndSplineSet
EndChar

StartChar: less
Encoding: 60 60 84
Width: 1010
VWidth: 1920
Flags: HMW
LayerCount: 2
Fore
SplineSet
766 156 m 2
 93 574 l 2
 87 578 84 583 86 590 c 2
 91 610 l 2
 93 617 97 622 105 626 c 2
 971 1044 l 2
 979 1048 982 1047 980 1040 c 2
 978 1030 l 2
 976 1023 973 1018 964 1014 c 2
 108 600 l 261
 773 186 l 2
 780 182 781 177 779 170 c 2
 777 160 l 2
 775 153 772 152 766 156 c 2
EndSplineSet
EndChar

StartChar: greater
Encoding: 62 62 85
Width: 1010
VWidth: 1920
Flags: HMW
LayerCount: 2
Fore
SplineSet
281 1044 m 6
 955 626 l 6
 961 622 963 617 961 610 c 6
 956 590 l 6
 954 583 951 578 943 574 c 6
 76 156 l 6
 68 152 65 153 67 160 c 6
 69 170 l 6
 71 177 74 182 83 186 c 6
 940 600 l 261
 274 1014 l 6
 267 1018 266 1023 268 1030 c 6
 270 1040 l 6
 272 1047 275 1048 281 1044 c 6
EndSplineSet
EndChar

StartChar: backslash
Encoding: 92 92 86
Width: 840
VWidth: 2048
Flags: HMW
LayerCount: 2
Fore
SplineSet
295 1390 m 6
 293 1399 296 1400 303 1400 c 6
 313 1400 l 6
 319 1400 323 1399 325 1390 c 6
 630 -90 l 6
 632 -99 629 -100 622 -100 c 6
 612 -100 l 6
 605 -100 602 -99 600 -90 c 6
 295 1390 l 6
EndSplineSet
EndChar

StartChar: bracketleft
Encoding: 91 91 87
Width: 550
VWidth: 1920
Flags: HMW
LayerCount: 2
Fore
SplineSet
422 1570 m 261
 -16 -330 l 261
 294 -330 l 2
 301 -330 304 -333 302 -340 c 2
 299 -350 l 2
 297 -357 294 -360 287 -360 c 2
 -43 -360 l 2
 -50 -360 -53 -357 -51 -350 c 2
 397 1590 l 2
 399 1597 402 1600 409 1600 c 2
 739 1600 l 2
 746 1600 749 1597 747 1590 c 2
 745 1580 l 2
 743 1573 739 1570 732 1570 c 2
 422 1570 l 261
EndSplineSet
EndChar

StartChar: braceleft
Encoding: 123 123 88
Width: 575
VWidth: 2048
Flags: HMW
LayerCount: 2
Fore
SplineSet
390 1278 m 258
 442 1505 516 1598 714 1600 c 4
 721 1600 724 1597 722 1590 c 2
 720 1580 l 2
 718 1573 714 1570 706 1570 c 4
 526 1566 472 1482 425 1278 c 262
 351 956 l 258
 308 771 226 668 59 620 c 257
 204 572 239 469 196 284 c 262
 121 -38 l 262
 74 -241 90 -324 266 -330 c 4
 276 -330 279 -333 277 -340 c 2
 274 -350 l 2
 272 -357 269 -360 260 -360 c 4
 65 -356 34 -265 86 -38 c 258
 161 284 l 258
 210 497 131 571 41 602 c 0
 33 605 30 609 32 616 c 2
 34 624 l 2
 36 631 40 635 47 637 c 0
 156 670 264 732 316 956 c 258
 390 1278 l 258
EndSplineSet
EndChar

StartChar: bracketright
Encoding: 93 93 89
Width: 550
VWidth: 1920
Flags: HMW
LayerCount: 2
Fore
SplineSet
174 -330 m 257
 612 1570 l 261
 302 1570 l 6
 295 1570 293 1573 295 1580 c 6
 297 1590 l 2
 299 1597 302 1600 309 1600 c 2
 639 1600 l 2
 646 1600 649 1597 647 1590 c 2
 199 -350 l 2
 197 -357 194 -360 187 -360 c 2
 -143 -360 l 2
 -150 -360 -153 -357 -151 -350 c 2
 -148 -340 l 2
 -146 -333 -143 -330 -136 -330 c 2
 174 -330 l 257
EndSplineSet
EndChar

StartChar: braceright
Encoding: 125 125 90
Width: 575
VWidth: 2048
Flags: HMW
LayerCount: 2
Fore
SplineSet
231 -38 m 262
 179 -265 105 -358 -93 -360 c 4
 -100 -360 -103 -357 -101 -350 c 6
 -98 -340 l 6
 -96 -333 -93 -330 -85 -330 c 4
 95 -326 149 -242 196 -38 c 262
 271 284 l 262
 314 469 395 572 562 620 c 261
 417 668 383 771 426 956 c 262
 500 1278 l 262
 547 1481 531 1564 355 1570 c 4
 345 1570 343 1573 345 1580 c 6
 347 1590 l 6
 349 1597 352 1600 361 1600 c 4
 556 1596 587 1505 535 1278 c 262
 461 956 l 262
 412 743 490 669 580 638 c 4
 588 635 591 631 589 624 c 6
 587 616 l 6
 585 609 581 605 574 603 c 4
 465 570 358 508 306 284 c 262
 231 -38 l 262
EndSplineSet
EndChar

StartChar: bar
Encoding: 124 124 91
Width: 415
VWidth: 1920
Flags: HMW
LayerCount: 2
Fore
SplineSet
452 1600 m 14
 462 1600 l 22
 469 1600 472 1597 470 1590 c 14
 22 -350 l 22
 20 -357 17 -360 10 -360 c 14
 -0 -360 l 22
 -7 -360 -10 -357 -8 -350 c 14
 440 1590 l 22
 442 1597 445 1600 452 1600 c 14
EndSplineSet
EndChar

StartChar: asciitilde
Encoding: 126 126 92
Width: 1330
VWidth: 2048
Flags: HMW
LayerCount: 2
Fore
SplineSet
482 779 m 260
 330 779 241 640 193 447 c 4
 192 441 188 438 181 438 c 2
 171 438 l 2
 164 438 162 441 163 447 c 0
 215 655 318 809 489 809 c 260
 698 809 697 432 889 432 c 260
 1041 432 1130 571 1177 763 c 4
 1179 770 1182 773 1189 773 c 2
 1198 773 l 2
 1205 773 1208 770 1206 763 c 0
 1154 555 1052 402 882 402 c 260
 673 402 674 779 482 779 c 260
EndSplineSet
EndChar

StartChar: asciicircum
Encoding: 94 94 93
Width: 820
VWidth: 1920
Flags: HMW
LayerCount: 2
Fore
SplineSet
604 1361 m 261
 205 740 l 2
 202 734 196 730 189 730 c 2
 169 730 l 2
 162 730 161 734 165 740 c 2
 587 1390 l 2
 593 1399 596 1400 603 1400 c 2
 623 1400 l 2
 630 1400 633 1399 635 1390 c 2
 757 740 l 2
 759 734 761 730 749 730 c 2
 729 730 l 2
 719 730 718 734 717 740 c 2
 604 1361 l 261
EndSplineSet
EndChar

StartChar: figuredash
Encoding: 8210 8210 108
Width: 1150
VWidth: 2048
Flags: HMW
LayerCount: 2
Fore
SplineSet
60 605 m 14
 63 620 l 22
 65 627 68 630 75 630 c 14
 1125 630 l 22
 1132 630 1135 627 1133 620 c 14
 1130 605 l 22
 1128 598 1124 595 1117 595 c 14
 67 595 l 22
 60 595 58 598 60 605 c 14
EndSplineSet
EndChar

StartChar: endash
Encoding: 8211 8211 109
Width: 1100
VWidth: 2048
Flags: HMW
LayerCount: 2
Fore
SplineSet
60 605 m 14
 63 620 l 22
 65 627 68 630 75 630 c 14
 1075 630 l 22
 1082 630 1085 627 1083 620 c 14
 1080 605 l 22
 1078 598 1074 595 1067 595 c 14
 67 595 l 22
 60 595 58 598 60 605 c 14
EndSplineSet
EndChar

StartChar: emdash
Encoding: 8212 8212 110
Width: 2200
VWidth: 2048
Flags: HMW
LayerCount: 2
Fore
SplineSet
60 605 m 14
 63 620 l 22
 65 627 68 630 75 630 c 14
 2175 630 l 22
 2182 630 2185 627 2183 620 c 14
 2180 605 l 22
 2178 598 2174 595 2167 595 c 14
 67 595 l 22
 60 595 58 598 60 605 c 14
EndSplineSet
EndChar

StartChar: uni2015
Encoding: 8213 8213 111
Width: 2360
VWidth: 2048
Flags: HMW
LayerCount: 2
Fore
SplineSet
60 605 m 14
 63 620 l 22
 65 627 68 630 75 630 c 14
 2335 630 l 22
 2342 630 2345 627 2343 620 c 14
 2340 605 l 22
 2338 598 2334 595 2327 595 c 14
 67 595 l 22
 60 595 58 598 60 605 c 14
EndSplineSet
EndChar

StartChar: quoteleft
Encoding: 8216 8216 114
Width: 540
VWidth: 1920
Flags: HMW
LayerCount: 2
Fore
SplineSet
501 1470 m 6
 503 1470 l 6
 510 1470 511 1468 507 1460 c 6
 422 1260 l 261
 429 1260 l 6
 438 1260 439 1259 437 1250 c 6
 393 1060 l 6
 391 1053 387 1050 380 1050 c 6
 360 1050 l 6
 353 1050 351 1053 353 1060 c 6
 394 1240 l 6
 396 1247 397 1253 401 1260 c 6
 489 1460 l 6
 493 1469 495 1470 501 1470 c 6
EndSplineSet
EndChar

StartChar: quotereversed
Encoding: 8219 8219 117
Width: 540
VWidth: 1920
Flags: HMW
LayerCount: 2
Fore
SplineSet
393 1000 m 6
 387 1000 385 1001 385 1010 c 6
 389 1210 l 6
 389 1217 390 1223 392 1230 c 6
 434 1410 l 6
 436 1417 439 1420 446 1420 c 6
 466 1420 l 6
 473 1420 476 1417 474 1410 c 6
 430 1220 l 6
 428 1211 426 1210 417 1210 c 6
 410 1210 l 261
 403 1010 l 6
 403 1002 402 1000 395 1000 c 6
 393 1000 l 6
EndSplineSet
EndChar

StartChar: bullet
Encoding: 8226 8226 120
Width: 690
VWidth: 2048
Flags: HMW
LayerCount: 2
Fore
SplineSet
200 718 m 262
 200 773 l 262
 200 893 293 950 390 950 c 260
 487 950 590 893 590 773 c 262
 590 718 l 262
 590 598 487 540 390 540 c 260
 293 540 200 598 200 718 c 262
EndSplineSet
EndChar

StartChar: dagger
Encoding: 8224 8224 124
Width: 1130
VWidth: 1920
Flags: HMW
LayerCount: 2
Fore
SplineSet
187 1025 m 14
 190 1040 l 22
 192 1047 195 1050 202 1050 c 14
 1172 1050 l 22
 1179 1050 1182 1047 1180 1040 c 14
 1177 1025 l 22
 1175 1018 1171 1015 1164 1015 c 14
 194 1015 l 22
 187 1015 185 1018 187 1025 c 14
763 1400 m 14
 773 1400 l 22
 780 1400 783 1397 781 1390 c 14
 462 10 l 22
 460 3 457 0 450 0 c 14
 440 0 l 22
 433 0 430 3 432 10 c 14
 751 1390 l 22
 753 1397 756 1400 763 1400 c 14
EndSplineSet
EndChar

StartChar: daggerdbl
Encoding: 8225 8225 125
Width: 1130
VWidth: 1920
Flags: HMW
LayerCount: 2
Fore
SplineSet
-48 10 m 14
 -44 25 l 22
 -42 32 -39 35 -32 35 c 14
 938 35 l 22
 945 35 948 32 946 25 c 14
 942 10 l 22
 940 3 937 0 930 0 c 14
 -40 0 l 22
 -47 0 -50 3 -48 10 c 14
187 1025 m 14
 190 1040 l 22
 192 1047 195 1050 202 1050 c 14
 1172 1050 l 22
 1179 1050 1182 1047 1180 1040 c 14
 1177 1025 l 22
 1175 1018 1171 1015 1164 1015 c 14
 194 1015 l 22
 187 1015 185 1018 187 1025 c 14
763 1400 m 14
 773 1400 l 22
 780 1400 783 1397 781 1390 c 14
 379 -350 l 22
 377 -357 374 -360 367 -360 c 14
 357 -360 l 22
 350 -360 347 -357 349 -350 c 14
 751 1390 l 22
 753 1397 756 1400 763 1400 c 14
EndSplineSet
EndChar

StartChar: perthousand
Encoding: 8240 8240 126
Width: 2555
VWidth: 2048
Flags: HMW
LayerCount: 2
Fore
SplineSet
1720 283 m 262
 1728 318 l 262
 1772 508 1960 635 2137 635 c 260
 2314 635 2452 508 2408 318 c 262
 2400 283 l 262
 2356 93 2159 -35 1982 -35 c 260
 1805 -35 1676 93 1720 283 c 262
1755 283 m 262
 1716 113 1834 5 1991 5 c 260
 2148 5 2326 113 2365 283 c 262
 2373 318 l 262
 2412 488 2284 595 2127 595 c 260
 1970 595 1802 488 1763 318 c 262
 1755 283 l 262
230 1083 m 262
 238 1118 l 262
 282 1308 469 1435 646 1435 c 260
 823 1435 962 1308 918 1118 c 262
 910 1083 l 262
 866 893 669 765 492 765 c 260
 315 765 186 893 230 1083 c 262
265 1083 m 262
 226 913 344 805 501 805 c 260
 668 805 836 913 875 1083 c 262
 883 1118 l 262
 922 1288 804 1395 637 1395 c 260
 480 1395 312 1288 273 1118 c 262
 265 1083 l 262
920 283 m 262
 928 318 l 262
 972 508 1160 635 1337 635 c 260
 1514 635 1652 508 1608 318 c 262
 1600 283 l 262
 1556 93 1359 -35 1182 -35 c 260
 1005 -35 876 93 920 283 c 262
955 283 m 262
 916 113 1034 5 1191 5 c 260
 1348 5 1526 113 1565 283 c 262
 1573 318 l 262
 1612 488 1484 595 1327 595 c 260
 1170 595 1002 488 963 318 c 262
 955 283 l 262
1580 1390 m 6
 298 10 l 6
 292 3 287 0 280 0 c 6
 260 0 l 6
 253 0 252 3 258 10 c 6
 1540 1390 l 6
 1546 1397 1551 1400 1558 1400 c 6
 1578 1400 l 6
 1585 1400 1586 1397 1580 1390 c 6
EndSplineSet
EndChar

StartChar: uni2031
Encoding: 8241 8241 127
Width: 3335
VWidth: 2048
Flags: HMW
LayerCount: 2
Fore
SplineSet
2500 283 m 262
 2508 318 l 262
 2552 508 2740 635 2917 635 c 260
 3094 635 3232 508 3188 318 c 262
 3180 283 l 262
 3136 93 2939 -35 2762 -35 c 260
 2585 -35 2456 93 2500 283 c 262
2535 283 m 262
 2496 113 2614 5 2771 5 c 260
 2928 5 3106 113 3145 283 c 262
 3153 318 l 262
 3192 488 3064 595 2907 595 c 260
 2750 595 2582 488 2543 318 c 262
 2535 283 l 262
1720 283 m 258
 1728 318 l 258
 1772 508 1960 635 2137 635 c 256
 2314 635 2452 508 2408 318 c 258
 2400 283 l 258
 2356 93 2159 -35 1982 -35 c 256
 1805 -35 1676 93 1720 283 c 258
1755 283 m 258
 1716 113 1834 5 1991 5 c 256
 2148 5 2326 113 2365 283 c 258
 2373 318 l 258
 2412 488 2284 595 2127 595 c 256
 1970 595 1802 488 1763 318 c 258
 1755 283 l 258
230 1083 m 258
 238 1118 l 258
 282 1308 469 1435 646 1435 c 256
 823 1435 962 1308 918 1118 c 258
 910 1083 l 258
 866 893 669 765 492 765 c 256
 315 765 186 893 230 1083 c 258
265 1083 m 258
 226 913 344 805 501 805 c 256
 668 805 836 913 875 1083 c 258
 883 1118 l 258
 922 1288 804 1395 637 1395 c 256
 480 1395 312 1288 273 1118 c 258
 265 1083 l 258
920 283 m 258
 928 318 l 258
 972 508 1160 635 1337 635 c 256
 1514 635 1652 508 1608 318 c 258
 1600 283 l 258
 1556 93 1359 -35 1182 -35 c 256
 1005 -35 876 93 920 283 c 258
955 283 m 258
 916 113 1034 5 1191 5 c 256
 1348 5 1526 113 1565 283 c 258
 1573 318 l 258
 1612 488 1484 595 1327 595 c 256
 1170 595 1002 488 963 318 c 258
 955 283 l 258
1580 1390 m 2
 298 10 l 2
 292 3 287 0 280 0 c 2
 260 0 l 2
 253 0 252 3 258 10 c 2
 1540 1390 l 2
 1546 1397 1551 1400 1558 1400 c 2
 1578 1400 l 2
 1585 1400 1586 1397 1580 1390 c 2
EndSplineSet
EndChar

StartChar: fraction
Encoding: 8260 8260 128
Width: 930
VWidth: 1920
Flags: HMW
LayerCount: 2
Fore
SplineSet
987 1277 m 14
 989 1273 l 22
 994 1269 995 1265 990 1259 c 14
 62 163 l 22
 57 157 52 155 47 159 c 14
 45 163 l 22
 40 167 39 171 44 177 c 14
 972 1273 l 22
 977 1279 982 1281 987 1277 c 14
EndSplineSet
EndChar

StartChar: uni2074
Encoding: 8308 8308 129
Width: 676
VWidth: 1920
Flags: HMW
LayerCount: 2
Fore
SplineSet
732 892 m 2
 728 874 l 2
 727 870 724 868 720 868 c 2
 582 868 l 257
 529 636 l 2
 528 632 525 630 521 630 c 2
 499 630 l 2
 495 630 494 632 495 636 c 2
 548 868 l 257
 126 868 l 2
 122 868 121 870 122 874 c 2
 129 904 l 2
 130 908 131 912 135 916 c 2
 680 1464 l 2
 683 1467 687 1470 691 1470 c 2
 715 1470 l 2
 719 1470 721 1468 720 1464 c 2
 589 898 l 257
 727 898 l 2
 731 898 733 896 732 892 c 2
561 898 m 257
 688 1446 l 257
 150 898 l 261
 561 898 l 257
EndSplineSet
EndChar

StartChar: uni2073
Encoding: 8307 8307 130
Width: 721
VWidth: 1920
Flags: HMW
LayerCount: 2
Fore
SplineSet
198 874 m 2
 220 874 l 2
 224 874 225 872 224 868 c 2
 215 826 l 2
 187 704 253 639 378 639 c 0
 528 639 621 713 651 841 c 2
 664 898 l 2
 691 1016 622 1066 476 1066 c 2
 428 1066 l 2
 424 1066 422 1068 423 1072 c 2
 428 1090 l 2
 429 1094 431 1096 435 1096 c 2
 471 1096 l 2
 621 1096 697 1142 721 1244 c 2
 730 1283 l 2
 754 1389 715 1461 575 1461 c 0
 445 1461 360 1391 330 1261 c 2
 318 1207 l 2
 317 1203 314 1201 310 1201 c 2
 294 1201 l 2
 290 1201 289 1203 290 1207 c 2
 302 1261 l 2
 334 1401 424 1491 582 1491 c 0
 740 1491 789 1418 757 1280 c 2
 753 1265 l 2
 718 1115 621 1077 467 1077 c 5
 482 1082 l 1
 636 1082 730 1033 695 883 c 2
 684 838 l 2
 651 694 549 609 371 609 c 0
 220 609 149 689 181 826 c 2
 190 868 l 2
 191 872 194 874 198 874 c 2
EndSplineSet
EndChar

StartChar: uni2072
Encoding: 8306 8306 131
Width: 692
VWidth: 1920
Flags: HMW
LayerCount: 2
Fore
SplineSet
150 693 m 262
 200 909 670 1029 723 1257 c 262
 729 1284 l 258
 756 1400 720 1468 586 1468 c 256
 444 1468 355 1392 319 1238 c 258
 306 1184 l 2
 305 1180 303 1178 299 1178 c 2
 283 1178 l 2
 279 1178 277 1180 278 1184 c 2
 291 1238 l 258
 329 1402 417 1498 593 1498 c 256
 751 1498 789 1419 757 1281 c 258
 751 1254 l 258
 696 1016 213 868 168 675 c 262
 166 669 l 257
 610 669 l 2
 614 669 616 667 615 663 c 2
 610 643 l 2
 609 639 607 637 603 637 c 2
 143 637 l 2
 139 637 137 639 138 643 c 2
 150 693 l 262
EndSplineSet
EndChar

StartChar: uni2070
Encoding: 8304 8304 132
Width: 770
VWidth: 1920
Flags: HMW
LayerCount: 2
Fore
SplineSet
173 923 m 258
 232 1178 l 258
 277 1373 418 1491 609 1491 c 256
 800 1491 887 1373 842 1178 c 258
 783 923 l 258
 738 727 597 609 406 609 c 256
 215 609 128 727 173 923 c 258
210 935 m 262
 169 756 243 639 413 639 c 256
 583 639 711 756 752 935 c 258
 805 1166 l 258
 846 1345 772 1461 602 1461 c 256
 432 1461 304 1345 263 1166 c 262
 210 935 l 262
EndSplineSet
EndChar

StartChar: uni2075
Encoding: 8309 8309 133
Width: 754
VWidth: 1920
Flags: HMW
LayerCount: 2
Fore
SplineSet
231 844 m 2
 241 844 l 6
 245 844 246 842 245 838 c 4
 220 694 263 632 401 632 c 4
 540 632 633 706 671 872 c 6
 682 917 l 2
 721 1087 664 1186 534 1186 c 0
 372 1186 341 1063 306 1021 c 0
 302 1016 298 1015 294 1015 c 2
 282 1015 l 2
 278 1015 277 1016 279 1021 c 2
 444 1457 l 2
 446 1461 449 1463 453 1463 c 2
 851 1463 l 2
 855 1463 856 1461 855 1457 c 2
 855 1455 l 2
 850 1433 832 1433 730 1433 c 2
 467 1433 l 1
 326 1070 l 1
 313 1070 l 1
 363 1144 385 1216 541 1216 c 0
 671 1216 762 1117 716 919 c 2
 707 880 l 2
 664 692 556 602 394 602 c 4
 234 602 199 694 223 838 c 0
 224 842 227 844 231 844 c 2
EndSplineSet
EndChar

StartChar: uni2076
Encoding: 8310 8310 134
Width: 836
VWidth: 1920
Flags: HMW
LayerCount: 2
Fore
SplineSet
593 1154 m 260
 403 1154 276 1015 255 925 c 262
 245 883 l 261
 243 943 l 261
 279 1101 476 1184 600 1184 c 260
 764 1184 833 1068 795 904 c 262
 788 874 l 262
 749 707 628 609 443 609 c 260
 257 609 178 730 228 946 c 262
 272 1136 l 262
 325 1364 445 1491 641 1491 c 260
 819 1491 873 1389 848 1279 c 262
 844 1261 l 6
 843 1257 841 1255 837 1255 c 6
 817 1255 l 6
 813 1255 811 1257 812 1261 c 6
 816 1279 l 262
 839 1379 802 1461 634 1461 c 260
 468 1461 351 1343 303 1133 c 262
 245 883 l 262
 223 789 258 639 450 639 c 260
 579 639 716 712 755 880 c 262
 761 904 l 262
 796 1054 747 1154 593 1154 c 260
EndSplineSet
EndChar

StartChar: uni2077
Encoding: 8311 8311 135
Width: 652
VWidth: 1920
Flags: HMW
LayerCount: 2
Fore
SplineSet
869 1464 m 2
 265 636 l 6
 262 632 259 630 255 630 c 6
 221 630 l 2
 217 630 216 632 219 636 c 2
 807 1434 l 257
 287 1434 l 2
 283 1434 281 1436 282 1440 c 2
 288 1464 l 2
 289 1468 291 1470 295 1470 c 2
 867 1470 l 2
 871 1470 872 1468 869 1464 c 2
EndSplineSet
EndChar

StartChar: uni2078
Encoding: 8312 8312 136
Width: 812
VWidth: 1920
Flags: HMW
LayerCount: 2
Fore
SplineSet
434 639 m 256
 612 639 681 707 715 855 c 258
 723 886 l 258
 755 1024 628 1056 530 1056 c 256
 432 1056 291 1024 259 886 c 258
 251 855 l 258
 217 707 256 639 434 639 c 256
537 1086 m 260
 707 1086 757 1163 773 1234 c 258
 780 1263 l 262
 809 1389 782 1461 623 1461 c 260
 474 1461 405 1389 376 1263 c 262
 369 1234 l 258
 353 1163 367 1086 537 1086 c 260
553 1076 m 257
 721 1076 784 1004 752 865 c 258
 745 838 l 258
 711 690 632 609 427 609 c 256
 222 609 179 690 213 838 c 258
 220 865 l 258
 252 1004 347 1076 515 1076 c 257
 516 1072 l 257
 357 1075 311 1132 342 1265 c 258
 346 1280 l 258
 377 1413 469 1491 630 1491 c 256
 791 1491 849 1413 818 1280 c 258
 814 1265 l 258
 783 1132 711 1075 550 1072 c 257
 553 1076 l 257
EndSplineSet
EndChar

StartChar: uni2079
Encoding: 8313 8313 137
Width: 826
VWidth: 1920
Flags: HMW
LayerCount: 2
Fore
SplineSet
477 946 m 256
 667 946 795 1085 816 1175 c 258
 826 1217 l 257
 828 1157 l 257
 792 999 594 916 470 916 c 256
 306 916 248 1032 286 1196 c 258
 293 1226 l 258
 332 1393 443 1491 628 1491 c 256
 814 1491 892 1370 842 1154 c 258
 799 964 l 258
 746 736 616 609 420 609 c 260
 242 609 178 711 203 821 c 258
 207 839 l 2
 208 843 210 845 214 845 c 2
 234 845 l 2
 238 845 240 843 239 839 c 2
 235 821 l 258
 212 721 259 639 427 639 c 260
 593 639 720 757 768 967 c 258
 826 1217 l 258
 848 1311 813 1461 621 1461 c 256
 492 1461 365 1388 326 1220 c 258
 320 1196 l 258
 285 1046 323 946 477 946 c 256
EndSplineSet
EndChar

StartChar: uni00B9
Encoding: 185 185 138
Width: 514
VWidth: 1920
Flags: HMW
LayerCount: 2
Fore
SplineSet
463 1436 m 0
 473 1444 475 1460 485 1500 c 0
 487 1507 488 1510 495 1510 c 2
 497 1510 l 2
 504 1510 503 1507 501 1500 c 2
 305 650 l 2
 303 643 300 640 293 640 c 2
 283 640 l 2
 276 640 273 643 275 650 c 2
 454 1424 l 2
 456 1431 459 1433 463 1436 c 0
EndSplineSet
EndChar

StartChar: cent
Encoding: 162 162 154
Width: 954
VWidth: 1920
Flags: HMW
LayerCount: 2
Fore
SplineSet
668 1240 m 6
 673 1240 l 6
 680 1240 683 1237 681 1230 c 6
 355 -180 l 6
 353 -187 350 -190 343 -190 c 6
 338 -190 l 6
 331 -190 328 -187 330 -180 c 6
 656 1230 l 6
 658 1237 661 1240 668 1240 c 6
EndSplineSet
Refer: 40 99 N 1 0 0 1 0 0 2
EndChar

StartChar: uni203D
Encoding: 8253 8253 157
Width: 1080
VWidth: 1920
Flags: HMW
LayerCount: 2
Fore
SplineSet
644 950 m 2
 674 1080 l 2
 676 1087 680 1090 687 1090 c 2
 697 1090 l 2
 704 1090 706 1087 704 1080 c 2
 674 950 l 2
 672 943 672 937 669 930 c 2
 551 410 l 2
 548 403 544 400 537 400 c 2
 537 400 l 2
 530 400 528 403 529 410 c 2
 641 930 l 2
 642 937 642 943 644 950 c 2
445 0 m 6
 425 0 l 2
 418 0 415 3 417 10 c 2
 461 200 l 2
 463 207 466 210 473 210 c 2
 493 210 l 6
 500 210 503 207 501 200 c 6
 457 10 l 6
 455 3 452 0 445 0 c 6
541 400 m 2
 536 400 l 2
 528 400 527 403 528 409 c 0
 609 731 923 768 986 1043 c 258
 992 1068 l 258
 1038 1268 1000 1405 793 1405 c 256
 573 1405 447 1265 398 1052 c 258
 377 962 l 2
 375 955 372 952 365 952 c 2
 355 952 l 2
 348 952 345 955 347 962 c 2
 368 1052 l 258
 420 1276 563 1435 800 1435 c 256
 1027 1435 1074 1293 1023 1073 c 258
 1017 1048 l 258
 945 735 619 713 551 408 c 0
 550 403 548 400 541 400 c 2
EndSplineSet
EndChar

StartChar: ordfeminine
Encoding: 170 170 159
Width: 847
VWidth: 1920
Flags: HMW
LayerCount: 2
Fore
SplineSet
243 834 m 4
 217 720 246 639 374 639 c 260
 578 639 704 806 738 952 c 257
 746 902 l 257
 713 759 558 609 367 609 c 260
 218 609 184 709 213 834 c 4
 243 965 303 1040 548 1079 c 256
 678 1099 786 1159 805 1242 c 257
 806 1202 l 257
 791 1139 668 1074 549 1054 c 256
 332 1017 271 954 243 834 c 4
715 852 m 258
 809 1262 l 258
 841 1402 780 1459 655 1459 c 256
 496 1459 402 1362 361 1226 c 0
 360 1220 356 1217 349 1217 c 2
 339 1217 l 2
 332 1217 330 1220 332 1226 c 0
 391 1379 476 1489 662 1489 c 256
 822 1489 874 1415 838 1257 c 258
 745 852 l 258
 723 758 729 693 755 651 c 0
 758 646 758 644 751 644 c 2
 737 644 l 2
 730 644 724 646 722 650 c 0
 695 693 693 757 715 852 c 258
EndSplineSet
EndChar

StartChar: exclamdown
Encoding: 161 161 160
Width: 540
VWidth: 1920
Flags: HMW
LayerCount: 2
Fore
SplineSet
382 1050 m 2
 402 1050 l 2
 409 1050 412 1047 410 1040 c 2
 366 850 l 2
 364 843 361 840 354 840 c 2
 334 840 l 2
 327 840 324 843 326 850 c 2
 370 1040 l 2
 372 1047 375 1050 382 1050 c 2
188 100 m 2
 75 -390 l 2
 73 -397 70 -400 63 -400 c 2
 53 -400 l 2
 46 -400 43 -397 45 -390 c 2
 158 100 l 2
 160 107 179 193 182 200 c 2
 280 610 l 2
 282 617 285 620 292 620 c 2
 294 620 l 2
 301 620 304 617 302 610 c 2
 210 200 l 2
 208 193 190 107 188 100 c 2
EndSplineSet
EndChar

StartChar: AE
Encoding: 198 198 161
Width: 2200
VWidth: 1920
Flags: HMW
LayerCount: 2
Fore
SplineSet
482 530 m 261
 1152 530 l 257
 1145 500 l 257
 475 500 l 261
 482 530 l 261
1358 1400 m 1
 15 10 l 2
 10 4 7 0 0 0 c 2
 -20 0 l 2
 -27 0 -29 5 -25 10 c 2
 1313 1390 l 2
 1317 1395 1321 1400 1328 1400 c 2
 1358 1400 l 1
EndSplineSet
Refer: 16 69 N 1 0 0 1 920 0 2
EndChar

StartChar: questiondown
Encoding: 191 191 162
Width: 1080
VWidth: 1920
Flags: HMW
LayerCount: 2
Fore
SplineSet
694 1050 m 6
 714 1050 l 6
 721 1050 724 1047 722 1040 c 6
 678 850 l 6
 676 843 673 840 666 840 c 6
 646 840 l 6
 639 840 636 843 638 850 c 6
 682 1040 l 6
 684 1047 687 1050 694 1050 c 6
617 650 m 6
 627 650 l 6
 634 650 637 647 636 641 c 4
 545 319 210 272 144 -13 c 262
 136 -48 l 262
 83 -278 162 -405 359 -405 c 260
 579 -405 731 -245 787 -2 c 262
 807 88 l 6
 809 95 813 98 820 98 c 6
 830 98 l 6
 837 98 839 95 837 88 c 6
 817 -2 l 262
 756 -266 600 -435 353 -435 c 260
 136 -435 47 -303 105 -53 c 262
 111 -28 l 262
 186 295 515 337 603 642 c 4
 604 647 610 650 617 650 c 6
EndSplineSet
EndChar

StartChar: yen
Encoding: 165 165 163
Width: 1125
VWidth: 1920
Flags: HMW
LayerCount: 2
Fore
SplineSet
106 385 m 14
 107 390 l 22
 109 397 112 400 119 400 c 14
 999 400 l 22
 1006 400 1009 397 1007 390 c 14
 1006 385 l 22
 1004 378 1001 375 994 375 c 14
 114 375 l 22
 107 375 104 378 106 385 c 14
145 555 m 14
 146 560 l 22
 148 567 152 570 159 570 c 14
 1039 570 l 22
 1046 570 1048 567 1046 560 c 14
 1045 555 l 22
 1043 548 1040 545 1033 545 c 14
 153 545 l 22
 146 545 143 548 145 555 c 14
EndSplineSet
Refer: 36 89 N 1 0 0 1 0 0 2
EndChar

StartChar: gravecomb
Encoding: 768 768 164
Width: 0
Flags: HMW
AnchorPoint: "top" -452 1000 mark 0
LayerCount: 2
Fore
SplineSet
-369 1104 m 2
 -389 1104 l 2
 -396 1104 -403 1109 -407 1114 c 2
 -578 1390 l 2
 -582 1395 -583 1400 -576 1400 c 2
 -526 1400 l 2
 -519 1400 -514 1397 -512 1390 c 2
 -363 1114 l 2
 -361 1107 -362 1104 -369 1104 c 2
EndSplineSet
EndChar

StartChar: acutecomb
Encoding: 769 769 165
Width: 0
Flags: HMW
AnchorPoint: "top" -437 1000 mark 0
LayerCount: 2
Fore
SplineSet
-470 1104 m 6
 -477 1104 -478 1107 -472 1114 c 6
 -195 1390 l 6
 -189 1397 -184 1400 -177 1400 c 6
 -127 1400 l 6
 -120 1400 -123 1395 -129 1390 c 6
 -428 1114 l 6
 -434 1109 -443 1104 -450 1104 c 6
 -470 1104 l 6
EndSplineSet
EndChar

StartChar: uni0302
Encoding: 770 770 166
Width: 0
VWidth: 1920
Flags: HMW
AnchorPoint: "top" -448 1000 mark 0
LayerCount: 2
Fore
SplineSet
-361 1381 m 261
 -622 1110 l 6
 -627 1105 -634 1100 -641 1100 c 6
 -646 1100 l 6
 -653 1100 -655 1104 -650 1110 c 6
 -383 1390 l 6
 -376 1398 -374 1400 -367 1400 c 6
 -347 1400 l 6
 -340 1400 -338 1398 -335 1390 c 6
 -188 1110 l 6
 -185 1104 -184 1100 -196 1100 c 6
 -201 1100 l 6
 -211 1100 -213 1105 -216 1110 c 6
 -361 1381 l 261
EndSplineSet
EndChar

StartChar: tildecomb
Encoding: 771 771 167
Width: 0
Flags: HMW
AnchorPoint: "top" -467 1000 mark 0
LayerCount: 2
Fore
SplineSet
-515 1399 m 256
 -587 1399 -650 1350 -694 1217 c 4
 -696 1211 -704 1208 -711 1208 c 2
 -711 1208 l 2
 -718 1208 -720 1211 -719 1217 c 0
 -683 1355 -599 1429 -508 1429 c 256
 -369 1429 -373 1212 -251 1212 c 256
 -179 1212 -115 1261 -72 1393 c 0
 -69 1400 -62 1403 -55 1403 c 2
 -56 1403 l 2
 -49 1403 -46 1400 -48 1393 c 0
 -84 1255 -168 1182 -258 1182 c 256
 -397 1182 -393 1399 -515 1399 c 256
EndSplineSet
EndChar

StartChar: uni0304
Encoding: 772 772 168
Width: 0
VWidth: 1920
Flags: HMW
AnchorPoint: "top" -449 1000 mark 0
LayerCount: 2
Fore
SplineSet
-663 1245 m 14
 -659 1260 l 22
 -657 1267 -654 1270 -647 1270 c 14
 -127 1270 l 22
 -120 1270 -117 1267 -119 1260 c 14
 -123 1245 l 22
 -125 1238 -128 1235 -135 1235 c 14
 -655 1235 l 22
 -662 1235 -665 1238 -663 1245 c 14
EndSplineSet
EndChar

StartChar: uni0306
Encoding: 774 774 169
Width: 0
VWidth: 1920
Flags: HMW
AnchorPoint: "top" -449 1000 mark 0
LayerCount: 2
Fore
SplineSet
-402 1205 m 4
 -232 1205 -131 1319 -106 1427 c 4
 -104 1435 -100 1438 -93 1438 c 6
 -88 1438 l 6
 -81 1438 -77 1435 -81 1424 c 4
 -122 1282 -226 1175 -409 1175 c 4
 -592 1175 -648 1283 -621 1427 c 4
 -619 1435 -615 1438 -608 1438 c 6
 -603 1438 l 6
 -596 1438 -594 1435 -596 1425 c 4
 -620 1315 -570 1205 -402 1205 c 4
EndSplineSet
EndChar

StartChar: uni0307
Encoding: 775 775 170
Width: 0
Flags: HMW
AnchorPoint: "top" -437 1000 mark 0
LayerCount: 2
Fore
SplineSet
-350 1264 m 6
 -406 1264 l 6
 -408 1264 -410 1264 -410 1266 c 6
 -396 1324 l 6
 -396 1326 -394 1326 -392 1326 c 6
 -336 1326 l 6
 -334 1326 -332 1326 -332 1324 c 6
 -346 1266 l 6
 -346 1264 -348 1264 -350 1264 c 6
EndSplineSet
EndChar

StartChar: uni0308
Encoding: 776 776 171
Width: 0
Flags: HMW
AnchorPoint: "top" -437 1000 mark 0
LayerCount: 2
Fore
SplineSet
-457 1264 m 2
 -514 1264 l 2
 -516 1264 -517 1264 -517 1266 c 2
 -503 1324 l 2
 -503 1326 -502 1326 -500 1326 c 2
 -443 1326 l 2
 -441 1326 -440 1326 -440 1324 c 2
 -454 1266 l 2
 -454 1264 -455 1264 -457 1264 c 2
-252 1264 m 6
 -309 1264 l 6
 -311 1264 -312 1264 -312 1266 c 6
 -298 1324 l 6
 -298 1326 -297 1326 -295 1326 c 6
 -238 1326 l 6
 -236 1326 -235 1326 -235 1324 c 6
 -249 1266 l 6
 -249 1264 -250 1264 -252 1264 c 6
EndSplineSet
EndChar

StartChar: uni030A
Encoding: 778 778 172
Width: 0
Flags: HMW
AnchorPoint: "top" -443 1000 mark 0
LayerCount: 2
Fore
SplineSet
-177 1312 m 0
 -201 1208 -311 1122 -415 1122 c 0
 -521 1122 -591 1206 -567 1312 c 0
 -543 1414 -433 1502 -327 1502 c 0
 -221 1502 -152 1420 -177 1312 c 0
-207 1312 m 4
 -185 1408 -240 1472 -334 1472 c 4
 -428 1472 -516 1402 -537 1312 c 4
 -559 1218 -502 1152 -408 1152 c 4
 -316 1152 -228 1222 -207 1312 c 4
EndSplineSet
EndChar

StartChar: uni030B
Encoding: 779 779 173
Width: 0
Flags: HMW
AnchorPoint: "top" -507 1000 mark 0
LayerCount: 2
Fore
SplineSet
-350 1104 m 6
 -357 1104 -358 1107 -352 1114 c 6
 -75 1390 l 6
 -69 1397 -64 1400 -57 1400 c 6
 -7 1400 l 6
 0 1400 -3 1395 -9 1390 c 6
 -308 1114 l 6
 -314 1109 -323 1104 -330 1104 c 6
 -350 1104 l 6
-620 1104 m 6
 -627 1104 -628 1107 -622 1114 c 6
 -345 1390 l 6
 -339 1397 -334 1400 -327 1400 c 6
 -277 1400 l 6
 -270 1400 -273 1395 -279 1390 c 6
 -578 1114 l 6
 -584 1109 -593 1104 -600 1104 c 6
 -620 1104 l 6
EndSplineSet
EndChar

StartChar: uni030C
Encoding: 780 780 174
Width: 0
Flags: HMW
AnchorPoint: "top" -443 1000 mark 0
LayerCount: 2
Fore
SplineSet
-411 1139 m 257
 -150 1410 l 2
 -145 1415 -138 1420 -131 1420 c 2
 -126 1420 l 2
 -119 1420 -117 1416 -122 1410 c 2
 -389 1130 l 2
 -396 1122 -398 1120 -405 1120 c 2
 -425 1120 l 2
 -432 1120 -434 1122 -437 1130 c 2
 -584 1410 l 2
 -587 1416 -588 1420 -576 1420 c 2
 -571 1420 l 2
 -561 1420 -559 1415 -556 1410 c 2
 -411 1139 l 257
EndSplineSet
EndChar

StartChar: uni030F
Encoding: 783 783 175
Width: 0
Flags: HMW
AnchorPoint: "top" -397 1000 mark 0
LayerCount: 2
Fore
SplineSet
-479 1104 m 6
 -499 1104 l 6
 -506 1104 -513 1109 -517 1114 c 6
 -688 1390 l 6
 -692 1395 -693 1400 -686 1400 c 6
 -636 1400 l 6
 -629 1400 -624 1397 -622 1390 c 6
 -473 1114 l 6
 -471 1107 -472 1104 -479 1104 c 6
-209 1104 m 6
 -229 1104 l 6
 -236 1104 -243 1109 -247 1114 c 6
 -418 1390 l 6
 -422 1395 -423 1400 -416 1400 c 6
 -366 1400 l 6
 -359 1400 -354 1397 -352 1390 c 6
 -203 1114 l 6
 -201 1107 -202 1104 -209 1104 c 6
EndSplineSet
EndChar

StartChar: uni0311
Encoding: 785 785 176
Width: 0
Flags: HMW
AnchorPoint: "top" -493 1000 mark 0
LayerCount: 2
Fore
SplineSet
-400 1405 m 0
 -570 1405 -671 1291 -696 1183 c 0
 -698 1175 -701 1172 -708 1172 c 2
 -713 1172 l 2
 -720 1172 -724 1175 -720 1186 c 0
 -679 1328 -576 1435 -393 1435 c 0
 -210 1435 -154 1327 -181 1183 c 0
 -183 1175 -186 1172 -193 1172 c 2
 -198 1172 l 2
 -205 1172 -207 1175 -205 1185 c 0
 -181 1295 -232 1405 -400 1405 c 0
EndSplineSet
EndChar

StartChar: dotbelowcomb
Encoding: 803 803 177
Width: 0
Flags: HMW
AnchorPoint: "bottom" -671 0 mark 0
LayerCount: 2
Fore
SplineSet
-708 -286 m 6
 -764 -286 l 6
 -766 -286 -768 -286 -768 -284 c 6
 -754 -226 l 6
 -754 -224 -752 -224 -750 -224 c 6
 -694 -224 l 6
 -692 -224 -690 -224 -690 -226 c 6
 -704 -284 l 6
 -704 -286 -706 -286 -708 -286 c 6
EndSplineSet
EndChar

StartChar: uni0326
Encoding: 806 806 178
Width: 0
Flags: HMW
AnchorPoint: "bottom" -681 0 mark 0
LayerCount: 2
Fore
SplineSet
-803 -373 m 6
 -812 -373 l 6
 -814 -373 -814 -372 -813 -370 c 6
 -768 -310 l 261
 -789 -310 l 6
 -792 -310 -792 -310 -791 -307 c 6
 -778 -250 l 6
 -778 -248 -776 -247 -774 -247 c 6
 -717 -247 l 6
 -715 -247 -715 -248 -715 -250 c 6
 -727 -304 l 6
 -727 -306 -729 -307 -732 -310 c 6
 -797 -370 l 6
 -799 -372 -801 -373 -803 -373 c 6
EndSplineSet
EndChar

StartChar: uni0327
Encoding: 807 807 179
Width: 1200
Flags: HMW
AnchorPoint: "bottom" -651 0 mark 0
LayerCount: 2
Fore
SplineSet
-868 -500 m 0
 -947 -500 -1000 -486 -1045 -451 c 0
 -1053 -444 -1050 -440 -1046 -434 c 2
 -1040 -426 l 6
 -1033 -416 -1033 -416 -1025 -421 c 4
 -979 -449 -961 -470 -862 -470 c 0
 -728 -470 -672 -404 -658 -342 c 0
 -636 -246 -726 -221 -855 -220 c 0
 -868 -220 -870 -224 -872 -218 c 2
 -873 -216 l 2
 -875 -207 -871 -203 -864 -196 c 2
 -665 10 l 1
 -635 10 l 1
 -860 -211 l 1
 -854 -210 -807 -210 -792 -210 c 0
 -706 -210 -605 -242 -628 -342 c 0
 -648 -430 -724 -500 -868 -500 c 0
EndSplineSet
EndChar

StartChar: uni0328
Encoding: 808 808 180
Width: 1200
Flags: HMW
AnchorPoint: "ogonek" -671 0 mark 0
LayerCount: 2
Fore
SplineSet
-692 -420 m 2
 -694 -430 l 2
 -696 -437 -700 -440 -707 -440 c 2
 -787 -440 l 2
 -955 -440 -1013 -358 -986 -240 c 4
 -959 -122 -837 -52 -660 20 c 5
 -655 0 l 1
 -826 -74 -927 -116 -956 -240 c 4
 -982 -352 -930 -410 -770 -410 c 2
 -700 -410 l 2
 -693 -410 -690 -413 -692 -420 c 2
EndSplineSet
EndChar

StartChar: uni0312
Encoding: 786 786 181
Width: 0
Flags: HMW
AnchorPoint: "top" -505 950 mark 0
LayerCount: 2
Fore
SplineSet
-358 1430 m 2
 -356 1430 l 2
 -349 1430 -348 1428 -352 1420 c 2
 -437 1220 l 257
 -430 1220 l 2
 -421 1220 -421 1219 -423 1210 c 2
 -467 1020 l 2
 -469 1013 -472 1010 -479 1010 c 2
 -499 1010 l 2
 -506 1010 -509 1013 -507 1020 c 2
 -465 1200 l 2
 -463 1207 -462 1213 -458 1220 c 2
 -370 1420 l 2
 -366 1429 -364 1430 -358 1430 c 2
EndSplineSet
EndChar

StartChar: sterling
Encoding: 163 163 182
Width: 1280
VWidth: 1920
Flags: HMW
LayerCount: 2
Fore
SplineSet
90 695 m 10
 92 700 l 18
 94 707 97 710 104 710 c 10
 764 710 l 18
 771 710 774 707 772 700 c 10
 770 695 l 18
 768 688 765 685 758 685 c 10
 98 685 l 18
 91 685 88 688 90 695 c 10
-28 34 m 0
 115 150 279 305 327 514 c 0
 377 732 208 815 261 1043 c 0
 314 1273 479 1435 766 1435 c 4
 1060 1435 1109 1266 1054 971 c 0
 1052 963 1049 963 1042 963 c 2
 1032 963 l 2
 1025 963 1022 963 1024 971 c 0
 1076 1256 1024 1405 759 1405 c 4
 492 1405 339 1253 291 1043 c 0
 240 822 409 740 357 514 c 0
 315 332 144 121 5 35 c 1
 918 35 l 2
 925 35 928 32 926 25 c 2
 922 10 l 2
 920 3 917 0 910 0 c 2
 -30 0 l 2
 -37 0 -40 3 -38 10 c 2
 -34 25 l 2
 -33 29 -33 30 -28 34 c 0
EndSplineSet
EndChar

StartChar: currency
Encoding: 164 164 183
Width: 1112
Flags: HMW
LayerCount: 2
Fore
SplineSet
1147 1164 m 10
 1154 1156 l 18
 1158 1151 1157 1147 1151 1142 c 10
 1024 1039 l 18
 1018 1034 1014 1034 1010 1039 c 10
 1004 1047 l 18
 1000 1052 1001 1057 1007 1062 c 10
 1133 1164 l 18
 1139 1169 1143 1169 1147 1164 c 10
189 386 m 10
 195 378 l 18
 199 373 198 368 192 363 c 10
 54 251 l 18
 48 246 44 246 40 251 c 10
 33 259 l 18
 29 264 30 268 36 273 c 10
 175 386 l 18
 181 391 185 391 189 386 c 10
240 1156 m 10
 251 1164 l 18
 257 1169 261 1169 265 1164 c 10
 351 1052 l 18
 355 1047 353 1042 347 1037 c 10
 338 1029 l 18
 332 1024 328 1024 324 1029 c 10
 237 1142 l 18
 233 1147 234 1151 240 1156 c 10
847 368 m 14
 857 376 l 22
 863 381 867 381 871 376 c 14
 950 273 l 18
 954 268 953 264 947 259 c 10
 936 251 l 18
 930 246 926 246 922 251 c 10
 843 353 l 22
 839 358 841 363 847 368 c 14
107 710 m 0
 169 979 441 1200 710 1200 c 0
 979 1200 1149 979 1087 710 c 0
 1025 441 753 220 484 220 c 0
 215 220 45 441 107 710 c 0
137 710 m 0
 77 451 242 250 491 250 c 0
 740 250 997 451 1057 710 c 0
 1114 959 952 1170 703 1170 c 0
 454 1170 194 959 137 710 c 0
EndSplineSet
EndChar

StartChar: brokenbar
Encoding: 166 166 184
Width: 415
VWidth: 1920
Flags: HMW
LayerCount: 2
Fore
SplineSet
177 430 m 14
 197 430 l 22
 204 430 207 427 205 420 c 14
 27 -350 l 22
 25 -357 22 -360 15 -360 c 14
 -5 -360 l 22
 -12 -360 -15 -357 -13 -350 c 14
 165 420 l 22
 167 427 170 430 177 430 c 14
447 1600 m 14
 467 1600 l 22
 474 1600 477 1597 475 1590 c 14
 297 820 l 22
 295 813 292 810 285 810 c 14
 265 810 l 22
 258 810 255 813 257 820 c 14
 435 1590 l 22
 437 1597 440 1600 447 1600 c 14
EndSplineSet
EndChar

StartChar: section
Encoding: 167 167 185
Width: 1086
VWidth: 1920
Flags: HMW
LayerCount: 2
Fore
SplineSet
564 870 m 257
 327 860 167 791 131 633 c 256
 95 476 269 349 427 246 c 256
 636 110 771 67 734 -93 c 256
 692 -275 528 -400 301 -400 c 256
 67 -400 13 -267 47 -57 c 0
 48 -51 52 -48 59 -48 c 2
 78 -48 l 2
 85 -48 88 -51 87 -58 c 0
 57 -248 105 -370 308 -370 c 256
 516 -370 667 -253 704 -93 c 256
 738 55 545 131 401 222 c 256
 154 378 69 496 101 633 c 256
 143 815 313 880 567 880 c 257
 564 870 l 257
531 165 m 257
 773 195 920 254 961 432 c 256
 997 589 817 691 659 794 c 256
 450 930 321 998 358 1158 c 256
 400 1340 527 1435 754 1435 c 260
 988 1435 1052 1302 1018 1092 c 0
 1017 1086 1013 1083 1006 1083 c 2
 997 1083 l 2
 990 1083 987 1086 988 1093 c 0
 1016 1273 960 1405 747 1405 c 260
 539 1405 425 1318 388 1158 c 256
 354 1010 540 909 684 818 c 256
 931 662 1027 589 991 432 c 256
 944 230 762 155 528 155 c 257
 531 165 l 257
EndSplineSet
EndChar

StartChar: copyright
Encoding: 169 169 186
Width: 1484
Flags: HMW
LayerCount: 2
Fore
SplineSet
1063 549 m 256
 1024 401 865 229 674 229 c 256
 442 229 384 393 437 621 c 258
 460 720 l 258
 513 948 645 1111 877 1111 c 256
 949 1111 1167 1090 1111 834 c 256
 1110 829 1107 828 1103 828 c 258
 1098 828 l 258
 1094 828 1092 829 1093 834 c 256
 1129 994 1051 1093 879 1093 c 256
 653 1093 528 936 478 720 c 258
 455 621 l 258
 405 405 458 247 684 247 c 256
 826 247 996 379 1045 549 c 256
 1046 554 1048 555 1052 555 c 258
 1058 555 l 258
 1062 555 1064 554 1063 549 c 256
1473 668 m 4
 1384 284 999 -28 615 -28 c 4
 231 -28 -10 284 79 668 c 4
 168 1052 552 1366 936 1366 c 4
 1320 1366 1562 1052 1473 668 c 4
1443 668 m 4
 1528 1036 1297 1336 929 1336 c 4
 561 1336 194 1036 109 668 c 4
 24 300 253 2 621 2 c 4
 989 2 1358 300 1443 668 c 4
EndSplineSet
EndChar

StartChar: registered
Encoding: 174 174 188
Width: 1484
Flags: HMW
LayerCount: 2
Fore
SplineSet
629 1072 m 261
 540 685 l 261
 828 685 l 262
 940 685 1054 741 1080 855 c 262
 1085 875 l 262
 1114 1001 1059 1072 917 1072 c 262
 629 1072 l 261
922 1090 m 262
 1070 1090 1135 1013 1103 875 c 262
 1100 861 l 262
 1071 735 968 676 826 676 c 261
 827 682 l 261
 981 682 1044 647 1011 503 c 262
 998 447 l 262
 982 379 983 305 1002 264 c 4
 1005 257 1005 256 1005 254 c 6
 1004 253 l 6
 1004 251 1002 250 998 250 c 6
 992 250 l 6
 988 250 986 250 984 255 c 4
 965 314 961 371 979 447 c 262
 992 503 l 262
 1025 647 955 673 825 673 c 262
 537 673 l 261
 441 256 l 6
 440 252 438 250 434 250 c 6
 428 250 l 6
 424 250 422 252 423 256 c 6
 614 1084 l 6
 615 1088 618 1090 622 1090 c 6
 922 1090 l 262
1473 668 m 0
 1384 284 999 -28 615 -28 c 0
 231 -28 -10 284 79 668 c 0
 168 1052 552 1366 936 1366 c 0
 1320 1366 1562 1052 1473 668 c 0
1443 668 m 0
 1528 1036 1297 1336 929 1336 c 0
 561 1336 194 1036 109 668 c 0
 24 300 253 2 621 2 c 0
 989 2 1358 300 1443 668 c 0
EndSplineSet
EndChar

StartChar: dotlessi
Encoding: 305 305 279
Width: 445
VWidth: 1920
Flags: HMW
AnchorPoint: "top" 347 1050 basechar 0
LayerCount: 2
Fore
SplineSet
358 1040 m 6
 120 10 l 6
 118 3 115 0 108 0 c 6
 98 0 l 6
 91 0 88 3 90 10 c 6
 328 1040 l 6
 330 1047 333 1050 340 1050 c 6
 350 1050 l 6
 357 1050 360 1047 358 1040 c 6
EndSplineSet
EndChar

StartChar: uni0237
Encoding: 567 567 291
Width: 261
VWidth: 1879
Flags: HMW
AnchorPoint: "top" 253 1050 basechar 0
LayerCount: 2
Fore
SplineSet
12 -59 m 2
 -37 -271 -110 -371 -209 -371 c 0
 -338 -371 -259 -200 -224 -107 c 0
 -222 -102 -219 -100 -212 -100 c 2
 -206 -100 l 2
 -199 -100 -196 -103 -198 -107 c 0
 -234 -201 -291 -340 -201 -340 c 0
 -103 -340 -47 -185 -18 -60 c 2
 236 1040 l 2
 238 1047 241 1050 248 1050 c 2
 258 1050 l 2
 265 1050 268 1047 266 1040 c 2
 12 -59 l 2
EndSplineSet
EndChar

StartChar: kgreenlandic
Encoding: 312 312 298
Width: 1000
VWidth: 1920
Flags: HMW
LayerCount: 2
Fore
SplineSet
332 1050 m 6
 342 1050 l 6
 349 1050 352 1047 350 1040 c 6
 112 10 l 2
 110 3 107 0 100 0 c 2
 90 0 l 2
 83 0 80 3 82 10 c 2
 320 1040 l 6
 322 1047 325 1050 332 1050 c 6
189 473 m 257
 951 1040 l 2
 961 1048 964 1050 972 1050 c 2
 992 1050 l 2
 999 1050 1000 1048 989 1040 c 2
 207 463 l 257
 189 473 l 257
522 703 m 257
 547 723 l 257
 816 10 l 2
 819 3 817 0 810 0 c 2
 795 0 l 2
 787 0 783 3 781 10 c 2
 522 703 l 257
EndSplineSet
EndChar

StartChar: grave
Encoding: 96 96 339
Width: 623
VWidth: 0
Flags: HMW
LayerCount: 2
Fore
SplineSet
551 1104 m 6
 531 1104 l 6
 524 1104 517 1109 513 1114 c 6
 342 1390 l 6
 338 1395 337 1400 344 1400 c 6
 394 1400 l 6
 401 1400 406 1397 408 1390 c 6
 557 1114 l 6
 559 1107 558 1104 551 1104 c 6
EndSplineSet
EndChar

StartChar: longs
Encoding: 383 383 352
Width: 599
VWidth: 1879
Flags: HMW
LayerCount: 2
Fore
SplineSet
398 1194 m 6
 445 1397 500 1509 772 1442 c 4
 780.792567323 1439.83418378 783 1438 781 1431 c 6
 780 1426 l 6
 778 1419 774.695823832 1415.03081539 762 1418 c 4
 514 1476 477 1383 433 1194 c 6
 159 10 l 6
 157 3 154 0 147 0 c 6
 132 0 l 6
 125 0 122 3 124 10 c 6
 398 1194 l 6
EndSplineSet
EndChar

StartChar: uni0259
Encoding: 601 601 359
Width: 1110
VWidth: 1920
Flags: HMW
LayerCount: 2
Fore
SplineSet
232 721 m 4
 300 885 425 1085 718 1085 c 260
 947 1085 1055 912 983 602 c 262
 947 447 l 262
 878 147 679 -35 452 -35 c 260
 195 -35 135 161 161 376 c 260
 169 447 166 432 185 516 c 4
 186 521 190 524 197 524 c 6
 951 524 l 261
 944 495 l 261
 209 495 l 261
 136 158 235 -10 458 -10 c 260
 675 -10 855 177 917 447 c 262
 953 602 l 262
 1015 872 931 1060 714 1060 c 260
 462 1060 332 896 259 718 c 4
 257 714 253 712 246 712 c 6
 238 712 l 6
 231 712 230 715 232 721 c 4
EndSplineSet
EndChar

StartChar: logicalnot
Encoding: 172 172 373
Width: 1150
VWidth: 2048
Flags: HMW
LayerCount: 2
Fore
SplineSet
166 675 m 2
 169 690 l 2
 171 697 175 700 182 700 c 2
 1012 700 l 2
 1019 700 1021 697 1019 690 c 2
 935 325 l 2
 933 318 930 315 923 315 c 2
 913 315 l 6
 906 315 903 318 905 325 c 6
 984 665 l 5
 174 665 l 2
 167 665 164 668 166 675 c 2
EndSplineSet
EndChar

StartChar: acute
Encoding: 180 180 374
Width: 619
VWidth: 0
Flags: HMW
LayerCount: 2
Fore
SplineSet
280 1104 m 6
 273 1104 272 1107 278 1114 c 6
 555 1390 l 6
 561 1397 566 1400 573 1400 c 6
 623 1400 l 6
 630 1400 627 1395 621 1390 c 6
 322 1114 l 6
 316 1109 307 1104 300 1104 c 6
 280 1104 l 6
EndSplineSet
EndChar

StartChar: degree
Encoding: 176 176 376
Width: 880
VWidth: 2048
Flags: HMW
LayerCount: 2
Fore
SplineSet
230 1083 m 258
 238 1118 l 258
 282 1308 469 1435 646 1435 c 256
 823 1435 962 1308 918 1118 c 258
 910 1083 l 258
 866 893 669 765 492 765 c 256
 315 765 186 893 230 1083 c 258
263 1073 m 262
 226 913 342 795 499 795 c 260
 656 795 836 913 873 1073 c 262
 885 1128 l 262
 922 1288 796 1405 639 1405 c 260
 482 1405 312 1288 275 1128 c 262
 263 1073 l 262
EndSplineSet
EndChar

StartChar: plusminus
Encoding: 177 177 377
Width: 1168
Flags: HMW
LayerCount: 2
Fore
SplineSet
45 260 m 14
 46 265 l 22
 48 272 51 275 58 275 c 14
 988 275 l 22
 995 275 998 272 996 265 c 14
 995 260 l 22
 993 253 990 250 983 250 c 14
 53 250 l 22
 46 250 43 253 45 260 c 14
224 1035 m 10
 227 1050 l 18
 229 1057 233 1060 240 1060 c 10
 1170 1060 l 18
 1177 1060 1179 1057 1177 1050 c 10
 1174 1035 l 18
 1172 1028 1169 1025 1162 1025 c 10
 232 1025 l 18
 225 1025 222 1028 224 1035 c 10
799 1490 m 10
 809 1490 l 18
 816 1490 819 1487 817 1480 c 10
 609 580 l 18
 607 573 604 570 597 570 c 10
 587 570 l 18
 580 570 577 573 579 580 c 10
 787 1480 l 18
 789 1487 792 1490 799 1490 c 10
EndSplineSet
EndChar

StartChar: ae
Encoding: 230 230 379
Width: 1738
VWidth: 1920
Flags: HMW
LayerCount: 2
Fore
SplineSet
111 263 m 0
 64 59 161 -5 309 -5 c 256
 563 -5 772 232 810 398 c 257
 820 378 l 257
 773 175 549 -35 298 -35 c 256
 119 -35 33 55 80 260 c 0
 119 431 257 555 556 595 c 256
 746 620 874 675 893 758 c 257
 908 738 l 257
 889 655 734 595 558 570 c 256
 269 528 146 413 111 263 c 0
803 368 m 265
 898 778 l 258
 935 938 897 1060 682 1060 c 256
 453 1060 325 948 258 742 c 0
 256 736 253 733 246 733 c 2
 237 733 l 2
 230 733 228 736 230 742 c 0
 305 965 442 1085 688 1085 c 256
 917 1085 967 951 926 773 c 258
 833 368 l 257
 803 368 l 265
1573 329 m 4
 1505 165 1380 -35 1087 -35 c 260
 858 -35 750 138 822 448 c 262
 858 603 l 262
 927 903 1126 1085 1353 1085 c 260
 1610 1085 1671 889 1645 674 c 260
 1637 603 1639 618 1620 534 c 4
 1619 529 1615 526 1608 526 c 6
 854 526 l 261
 861 555 l 261
 1596 555 l 261
 1669 892 1571 1060 1348 1060 c 260
 1131 1060 950 873 888 603 c 262
 852 448 l 262
 790 178 875 -10 1092 -10 c 260
 1344 -10 1474 154 1547 332 c 4
 1549 336 1552 338 1559 338 c 6
 1567 338 l 6
 1574 338 1575 335 1573 329 c 4
EndSplineSet
EndChar

StartChar: paragraph
Encoding: 182 182 380
Width: 1070
VWidth: 1920
Flags: HMW
LayerCount: 2
Fore
SplineSet
1080 1365 m 5
 684 -350 l 6
 682 -357 679 -360 672 -360 c 6
 662 -360 l 6
 655 -360 651 -357 654 -350 c 6
 1050 1365 l 5
 800 1365 l 5
 404 -350 l 6
 401 -357 399 -360 392 -360 c 6
 382 -360 l 6
 375 -360 372 -357 374 -350 c 6
 594 600 l 5
 514 600 l 2
 307 600 141 698 203 968 c 2
 218 1032 l 2
 280 1302 491 1400 698 1400 c 2
 1228 1400 l 2
 1235 1400 1238 1397 1236 1390 c 2
 1232 1375 l 2
 1230 1368 1227 1365 1220 1365 c 2
 1080 1365 l 5
EndSplineSet
EndChar

StartChar: guilsinglleft
Encoding: 8249 8249 381
Width: 630
Flags: HMW
LayerCount: 2
Fore
SplineSet
390 216 m 6
 174 539 l 6
 168 543 166 548 168 555 c 6
 170 565 l 6
 172 572 176 577 184 581 c 6
 542 874 l 6
 550 878 553 877 551 870 c 6
 549 860 l 6
 547 853 544 848 535 844 c 6
 191 557 l 261
 398 251 l 6
 405 247 406 242 404 235 c 6
 401 220 l 6
 399 213 396 212 390 216 c 6
EndSplineSet
EndChar

StartChar: guilsinglright
Encoding: 8250 8250 382
Width: 630
Flags: HW
LayerCount: 2
Fore
SplineSet
252 874 m 2
 467 551 l 2
 473 547 476 542 474 535 c 2
 471 525 l 2
 469 518 466 513 458 509 c 2
 100 216 l 2
 92 212 89 213 91 220 c 2
 93 230 l 2
 95 237 98 242 107 246 c 2
 451 533 l 257
 244 839 l 2
 237 843 235 848 237 855 c 2
 241 870 l 2
 243 877 246 878 252 874 c 2
EndSplineSet
EndChar

StartChar: mu
Encoding: 181 181 385
Width: 1110
VWidth: 1920
Flags: HW
LayerCount: 2
Fore
SplineSet
335 1050 m 6
 345 1050 l 6
 352 1050 355 1047 353 1040 c 6
 32 -350 l 6
 30 -357 27 -360 20 -360 c 6
 10 -360 l 6
 3 -360 0 -357 2 -350 c 6
 323 1040 l 6
 325 1047 328 1050 335 1050 c 6
774 0 m 2
 772 0 l 2
 765 0 763 3 765 10 c 2
 851 383 l 257
 848 410 l 257
 993 1040 l 2
 995 1047 998 1050 1005 1050 c 2
 1015 1050 l 2
 1022 1050 1025 1047 1023 1040 c 2
 785 10 l 2
 783 3 781 0 774 0 c 2
872 427 m 257
 821 207 587 -35 370 -35 c 256
 173 -35 113 87 159 287 c 258
 333 1040 l 2
 335 1047 333 1050 340 1050 c 2
 345 1050 l 2
 352 1050 355 1047 353 1040 c 2
 179 287 l 258
 137 107 189 -10 376 -10 c 256
 573 -10 804 217 852 427 c 257
 872 427 l 257
EndSplineSet
EndChar

StartChar: Eth
Encoding: 208 208 387
Width: 1229
VWidth: 1920
Flags: HW
LayerCount: 2
Fore
SplineSet
39 705 m 14
 42 720 l 22
 44 727 48 730 55 730 c 14
 665 730 l 22
 672 730 674 727 672 720 c 14
 669 705 l 22
 667 698 663 695 656 695 c 14
 46 695 l 22
 39 695 37 698 39 705 c 14
EndSplineSet
Refer: 15 68 N 1 0 0 1 0 0 2
EndChar

StartChar: Dcroat
Encoding: 272 272 388
Width: 1229
VWidth: 1920
Flags: HW
LayerCount: 2
Fore
SplineSet
39 705 m 14
 42 720 l 22
 44 727 48 730 55 730 c 14
 665 730 l 22
 672 730 674 727 672 720 c 14
 669 705 l 22
 667 698 663 695 656 695 c 14
 46 695 l 22
 39 695 37 698 39 705 c 14
EndSplineSet
Refer: 15 68 N 1 0 0 1 0 0 2
EndChar

StartChar: thorn
Encoding: 254 254 389
Width: 1135
VWidth: 1920
Flags: HW
LayerCount: 2
Fore
SplineSet
342 1450 m 2
 358 1450 l 2
 365 1450 364 1447 362 1440 c 2
 -51 -350 l 2
 -53 -357 -56 -360 -63 -360 c 2
 -73 -360 l 2
 -80 -360 -83 -357 -81 -350 c 2
 332 1440 l 2
 334 1447 335 1450 342 1450 c 2
161 633 m 257
 223 903 491 1085 708 1085 c 256
 914 1085 1115 943 1037 603 c 258
 1001 447 l 258
 927 127 665 -35 459 -35 c 256
 215 -35 51 157 111 417 c 257
 131 437 l 257
 76 197 223 -5 466 -5 c 256
 654 -5 902 147 971 447 c 258
 1007 603 l 258
 1081 923 890 1055 702 1055 c 256
 477 1055 227 853 172 613 c 257
 161 633 l 257
EndSplineSet
EndChar

StartChar: Thorn
Encoding: 222 222 390
Width: 1280
VWidth: 1920
Flags: HW
LayerCount: 2
Fore
SplineSet
834 1100 m 6
 1121 1100 1218 1052 1156 782 c 2
 1141 718 l 2
 1079 448 959 400 672 400 c 6
 252 400 l 1
 162 10 l 2
 160 3 157 0 150 0 c 2
 140 0 l 2
 133 0 130 3 132 10 c 2
 451 1390 l 2
 453 1397 456 1400 463 1400 c 2
 473 1400 l 2
 480 1400 483 1397 481 1390 c 2
 414 1100 l 1
 834 1100 l 6
259 430 m 1
 679 430 l 6
 966 430 1058 488 1111 718 c 2
 1126 782 l 2
 1181 1022 1114 1070 827 1070 c 6
 407 1070 l 1
 259 430 l 1
EndSplineSet
EndChar

StartChar: divide
Encoding: 247 247 391
Width: 1169
VWidth: 2048
Flags: HW
LayerCount: 2
Fore
SplineSet
108 685 m 10
 112 700 l 18
 114 707 117 710 124 710 c 10
 1104 710 l 18
 1111 710 1114 707 1112 700 c 10
 1108 685 l 18
 1106 678 1103 675 1096 675 c 10
 116 675 l 18
 109 675 106 678 108 685 c 10
EndSplineSet
Refer: 1 46 N 1 0 0 1 496 990 2
Refer: 1 46 S 1 0 0 1 326 180 2
EndChar

StartChar: multiply
Encoding: 215 215 392
Width: 1060
VWidth: 1920
Flags: HW
LayerCount: 2
Fore
SplineSet
833 377 m 14
 832 376 l 18
 826 371 822 371 818 376 c 10
 312 1034 l 18
 308 1039 309 1043 315 1048 c 10
 317 1049 l 22
 323 1054 327 1054 331 1049 c 14
 836 391 l 22
 840 386 839 382 833 377 c 14
169 366 m 10
 160 377 l 18
 156 382 157 386 163 391 c 10
 973 1049 l 18
 979 1054 983 1054 987 1049 c 10
 988 1048 l 18
 992 1043 991 1039 985 1034 c 10
 176 376 l 18
 170 371 173 361 169 366 c 10
EndSplineSet
EndChar

StartChar: Oslash
Encoding: 216 216 393
Width: 1317
VWidth: 1920
Flags: HW
LayerCount: 2
Fore
SplineSet
1116 1486 m 2
 1124 1480 l 6
 1130 1476 1132 1472 1128 1466 c 6
 248 -58 l 6
 244 -64 240 -66 234 -62 c 6
 226 -56 l 2
 220 -52 218 -48 222 -42 c 2
 1102 1482 l 2
 1106 1488 1110 1490 1116 1486 c 2
EndSplineSet
Refer: 26 79 N 1 0 0 1 0 0 2
EndChar

StartChar: oslash
Encoding: 248 248 394
Width: 1071
VWidth: 1920
Flags: HW
LayerCount: 2
Fore
SplineSet
897 1169 m 2
 906 1163 l 6
 912 1159 914 1155 910 1149 c 6
 200 -81 l 6
 196 -87 192 -89 186 -85 c 6
 177 -79 l 2
 171 -75 169 -71 173 -65 c 2
 883 1165 l 2
 887 1171 891 1173 897 1169 c 2
EndSplineSet
Refer: 52 111 N 1 0 0 1 0 0 2
EndChar

StartChar: germandbls
Encoding: 223 223 396
Width: 1210
VWidth: 1920
Flags: HW
LayerCount: 2
Fore
SplineSet
374 1188 m 2
 414 1362 510 1487 740 1487 c 0
 973 1487 1069 1372 1030 1205 c 0
 985 1008 751 948 723 828 c 4
 661 559 1109 593 1042 302 c 0
 993 90 845 -35 485 -35 c 0
 476 -35 475 -34 477 -25 c 2
 480 -15 l 2
 482 -6 483 -5 492 -5 c 4
 827 -4 969 114 1012 302 c 4
 1075 575 626 537 693 828 c 0
 726 970 958 1025 1000 1205 c 0
 1033 1346 955 1457 733 1457 c 0
 531 1457 444 1341 409 1188 c 2
 137 10 l 2
 135 3 132 0 125 0 c 2
 110 0 l 2
 103 0 100 3 102 10 c 2
 374 1188 l 2
EndSplineSet
EndChar

StartChar: eth
Encoding: 240 240 397
Width: 1104
VWidth: 1920
Flags: HW
LayerCount: 2
Fore
SplineSet
333 1172 m 10
 332 1185 l 18
 330 1191 333 1195 340 1198 c 10
 933 1448 l 18
 940 1451 943 1450 945 1444 c 10
 945 1431 l 18
 947 1425 944 1421 937 1418 c 10
 344 1167 l 18
 337 1164 335 1166 333 1172 c 10
593 1055 m 256
 373 1055 232 830 171 567 c 262
 146 457 l 262
 81 177 170 -5 429 -5 c 256
 746 -5 847 252 898 472 c 258
 950 698 l 258
 1016 984 775 1312 454 1451 c 0
 445 1455 443 1459 449 1466 c 2
 455 1475 l 2
 461 1483 462 1485 474 1480 c 0
 815 1337 1065 999 978 623 c 258
 958 537 l 258
 889 237 779 -35 422 -35 c 256
 130 -35 42 179 106 457 c 262
 131 567 l 262
 194 841 342 1085 599 1085 c 256
 836 1085 1007 856 962 662 c 257
 898 472 l 257
 928 602 l 258
 986 855 833 1055 593 1055 c 256
EndSplineSet
EndChar

StartChar: dcroat
Encoding: 273 273 398
Width: 1055
VWidth: 1920
Flags: HW
LayerCount: 2
Fore
SplineSet
867 1255 m 14
 870 1270 l 22
 872 1277 876 1280 883 1280 c 14
 1353 1280 l 22
 1360 1280 1362 1277 1360 1270 c 14
 1357 1255 l 22
 1355 1248 1351 1245 1344 1245 c 14
 874 1245 l 22
 867 1245 865 1248 867 1255 c 14
EndSplineSet
Refer: 41 100 N 1 0 0 1 0 0 2
EndChar

StartChar: Hbar
Encoding: 294 294 399
Width: 1227
VWidth: 1920
Flags: HW
LayerCount: 2
Fore
SplineSet
82 1060 m 14
 85 1075 l 22
 87 1082 90 1085 97 1085 c 14
 1457 1085 l 22
 1464 1085 1467 1082 1465 1075 c 14
 1462 1060 l 22
 1460 1053 1456 1050 1449 1050 c 14
 89 1050 l 22
 82 1050 80 1053 82 1060 c 14
EndSplineSet
Refer: 19 72 N 1 0 0 1 0 0 2
EndChar

StartChar: hbar
Encoding: 295 295 400
Width: 953
VWidth: 1920
Flags: HW
LayerCount: 2
Fore
SplineSet
170 1305 m 14
 174 1320 l 22
 176 1327 179 1330 186 1330 c 14
 656 1330 l 22
 663 1330 666 1327 664 1320 c 14
 660 1305 l 22
 658 1298 655 1295 648 1295 c 14
 178 1295 l 22
 171 1295 168 1298 170 1305 c 14
EndSplineSet
Refer: 45 104 N 1 0 0 1 0 0 2
EndChar

StartChar: Lslash
Encoding: 321 321 405
Width: 1011
VWidth: 1920
Flags: HW
LayerCount: 2
Fore
SplineSet
589 1038 m 6
 591 1034 l 6
 594 1028 590 1024 583 1020 c 6
 64 755 l 6
 57 751 54 753 51 759 c 6
 49 763 l 6
 46 769 49 773 56 777 c 6
 576 1042 l 6
 583 1046 586 1044 589 1038 c 6
EndSplineSet
Refer: 23 76 N 1 0 0 1 0 0 2
EndChar

StartChar: lslash
Encoding: 322 322 406
Width: 280
VWidth: 1920
Flags: HW
LayerCount: 2
Fore
SplineSet
524 1038 m 6
 526 1034 l 6
 529 1028 525 1024 518 1020 c 6
 -1 755 l 6
 -8 751 -11 753 -14 759 c 6
 -16 763 l 6
 -19 769 -16 773 -9 777 c 6
 511 1042 l 6
 518 1046 521 1044 524 1038 c 6
EndSplineSet
Refer: 49 108 N 1 0 0 1 0 0 2
EndChar

StartChar: eng
Encoding: 331 331 408
Width: 1110
VWidth: 1920
Flags: HW
LayerCount: 2
Fore
SplineSet
336 1050 m 2
 343 1050 l 2
 350 1050 352 1047 350 1040 c 2
 264 667 l 257
 263 640 l 257
 117 10 l 2
 115 3 112 0 105 0 c 2
 95 0 l 2
 88 0 85 3 87 10 c 2
 325 1040 l 2
 327 1047 329 1050 336 1050 c 2
765 -86 m 6
 717 -293 657 -378 375 -351 c 0
 367 -350 365 -347 367 -340 c 2
 369 -330 l 2
 371 -323 374 -320 381 -321 c 0
 627 -348 690 -285 735 -88 c 2
 931 763 l 2
 973 943 912 1060 725 1060 c 0
 528 1060 307 833 259 623 c 1
 239 623 l 1
 290 843 503 1085 730 1085 c 0
 937 1085 1007 963 961 763 c 2
 765 -86 l 6
EndSplineSet
EndChar

StartChar: Eng
Encoding: 330 330 409
Width: 1380
VWidth: 1920
Flags: HW
LayerCount: 2
Fore
SplineSet
1333 1400 m 2
 1343 1400 l 2
 1350 1400 1353 1397 1351 1390 c 2
 1010 -86 l 2
 962 -293 902 -378 620 -351 c 0
 612 -350 610 -347 612 -340 c 2
 614 -330 l 2
 616 -323 619 -320 626 -321 c 0
 872 -348 935 -285 980 -88 c 2
 998 -10 l 1
 455 1363 l 1
 142 10 l 2
 140 3 137 0 130 0 c 2
 120 0 l 2
 113 0 110 3 112 10 c 2
 431 1390 l 2
 433 1397 436 1400 443 1400 c 2
 463 1400 l 2
 471 1400 474 1398 478 1390 c 2
 1011 47 l 25
 1321 1390 l 2
 1323 1397 1326 1400 1333 1400 c 2
EndSplineSet
EndChar

StartChar: oe
Encoding: 339 339 410
Width: 1880
VWidth: 1920
Flags: HW
LayerCount: 2
Fore
SplineSet
118 468 m 258
 145 583 l 258
 212 873 388 1085 685 1085 c 256
 982 1085 1062 873 995 583 c 258
 968 468 l 258
 901 178 724 -35 427 -35 c 256
 130 -35 51 178 118 468 c 258
143 468 m 258
 81 198 156 -10 433 -10 c 256
 710 -10 881 198 943 468 c 258
 970 583 l 258
 1032 853 957 1060 680 1060 c 256
 403 1060 232 853 170 583 c 258
 143 468 l 258
1690 329 m 0
 1622 165 1497 -35 1204 -35 c 256
 975 -35 867 138 939 448 c 258
 975 603 l 258
 1044 903 1243 1085 1470 1085 c 256
 1727 1085 1788 889 1762 674 c 256
 1754 603 1756 618 1737 534 c 0
 1736 529 1732 526 1725 526 c 2
 971 526 l 257
 978 555 l 257
 1713 555 l 257
 1786 892 1688 1060 1465 1060 c 256
 1248 1060 1067 873 1005 603 c 258
 969 448 l 258
 907 178 992 -10 1209 -10 c 256
 1461 -10 1591 154 1664 332 c 0
 1666 336 1669 338 1676 338 c 2
 1684 338 l 2
 1691 338 1692 335 1690 329 c 0
EndSplineSet
EndChar

StartChar: OE
Encoding: 338 338 411
Width: 2130
VWidth: 1920
Flags: HW
LayerCount: 2
Fore
SplineSet
848 1400 m 262
 1293 1400 l 262
 1300 1400 1303 1397 1301 1390 c 262
 982 10 l 262
 980 3 977 0 970 0 c 262
 525 0 l 262
 211 0 85 241 172 617 c 262
 211 782 l 262
 298 1158 494 1400 848 1400 c 262
841 1370 m 262
 517 1370 326 1150 241 782 c 262
 202 617 l 262
 119 259 238 30 532 30 c 262
 957 30 l 261
 1266 1370 l 261
 841 1370 l 262
EndSplineSet
Refer: 16 69 N 1 0 0 1 850 0 2
EndChar

StartChar: Tbar
Encoding: 358 358 413
Width: 1071
VWidth: 1920
Flags: HW
LayerCount: 2
Fore
SplineSet
171 740 m 14
 171 755 l 18
 171 762 174 765 181 765 c 10
 931 765 l 18
 938 765 941 762 941 755 c 10
 941 740 l 22
 941 733 938 730 931 730 c 14
 181 730 l 22
 174 730 171 733 171 740 c 14
EndSplineSet
Refer: 31 84 N 1 0 0 1 0 0 2
EndChar

StartChar: tbar
Encoding: 359 359 414
Width: 604
VWidth: 1920
Flags: HW
LayerCount: 2
Fore
SplineSet
33 670 m 14
 33 685 l 18
 33 692 36 695 43 695 c 10
 563 695 l 18
 570 695 573 692 573 685 c 10
 573 670 l 22
 573 663 570 660 563 660 c 14
 43 660 l 22
 36 660 33 663 33 670 c 14
EndSplineSet
Refer: 57 116 N 1 0 0 1 0 0 2
EndChar

StartChar: florin
Encoding: 402 402 415
Width: 502
VWidth: 1920
Flags: HMW
LayerCount: 2
Fore
SplineSet
526 1020 m 2
 188 1020 l 2
 181 1020 179 1023 181 1030 c 2
 183 1040 l 2
 185 1047 188 1050 195 1050 c 2
 533 1050 l 2
 540 1050 542 1047 540 1040 c 2
 538 1030 l 2
 536 1023 533 1020 526 1020 c 2
320 1135 m 2
 371 1347 444 1447 563 1447 c 0
 732 1447 673 1276 618 1183 c 0
 615 1178 615 1176 608 1176 c 2
 592 1176 l 2
 585 1176 580 1179 582 1183 c 0
 638 1277 685 1417 556 1417 c 0
 458 1417 392 1311 350 1136 c 2
 328 1044 l 2
 326 1037 318 1034 311 1034 c 2
 306 1034 l 2
 299 1034 296 1037 298 1044 c 2
 320 1135 l 2
73 -59 m 2
 24 -271 -19 -371 -128 -371 c 0
 -287 -371 -198 -200 -163 -107 c 0
 -161 -102 -158 -100 -151 -100 c 2
 -143 -100 l 2
 -136 -100 -133 -103 -135 -107 c 0
 -171 -201 -241 -341 -121 -341 c 0
 -33 -341 2 -235 43 -60 c 2
 298 1038 l 2
 300 1045 302 1048 309 1048 c 2
 319 1048 l 2
 326 1048 329 1047 327 1040 c 2
 73 -59 l 2
EndSplineSet
EndChar

StartChar: uni0394
Encoding: 916 916 430
Width: 1280
VWidth: 1920
Flags: HW
LayerCount: 2
Fore
SplineSet
-20 0 m 6
 -27 0 -28 4 -25 10 c 2
 813 1390 l 2
 816 1396 821 1400 828 1400 c 2
 838 1400 l 2
 845 1400 848 1396 849 1390 c 2
 1059 10 l 2
 1060 4 1057 0 1050 0 c 2
 -20 0 l 6
27 30 m 1
 1016 30 l 1
 823 1355 l 1
 27 30 l 1
EndSplineSet
EndChar

StartChar: uni03A9
Encoding: 937 937 431
Width: 1490
VWidth: 1920
Flags: HW
LayerCount: 2
Fore
SplineSet
725 51 m 0
 979 134 1348 468 1413 748 c 2
 1423 793 l 2
 1503 1141 1313 1405 949 1405 c 0
 585 1405 273 1141 193 793 c 2
 183 748 l 2
 118 467 334 132 552 50 c 0
 566 45 565 42 562 31 c 2
 557 10 l 2
 555 3 552 0 545 0 c 2
 -5 0 l 2
 -12 0 -15 3 -13 10 c 2
 -9 25 l 2
 -7 32 -4 35 3 35 c 2
 498 35 l 1
 291 142 85 453 153 748 c 2
 161 783 l 2
 250 1169 574 1435 956 1435 c 0
 1338 1435 1540 1169 1451 783 c 2
 1443 748 l 2
 1375 453 1022 142 766 35 c 5
 1263 35 l 2
 1270 35 1273 32 1271 25 c 2
 1267 10 l 2
 1265 3 1262 0 1255 0 c 2
 705 0 l 2
 698 0 695 3 697 10 c 2
 702 31 l 2
 705 42 706 45 725 51 c 0
EndSplineSet
EndChar

StartChar: pi
Encoding: 960 960 432
Width: 1255
VWidth: 1920
Flags: HW
LayerCount: 2
Fore
SplineSet
356 1030 m 2
 120 10 l 2
 118 3 115 0 108 0 c 2
 98 0 l 2
 91 0 88 3 90 10 c 2
 326 1030 l 2
 328 1037 331 1040 338 1040 c 2
 348 1040 l 2
 355 1040 358 1037 356 1030 c 2
1100 20 m 6
 1097 10 l 2
 1095 3 1092 0 1085 -1 c 0
 788 -38 830 44 878 252 c 258
 1058 1030 l 2
 1060 1037 1063 1040 1070 1040 c 2
 1085 1040 l 2
 1092 1040 1095 1037 1093 1030 c 2
 913 252 l 262
 868 55 834 -9 1093 29 c 4
 1099 30 1102 27 1100 20 c 6
157 1025 m 10
 160 1040 l 18
 162 1047 165 1050 172 1050 c 10
 1272 1050 l 18
 1279 1050 1282 1047 1280 1040 c 10
 1277 1025 l 18
 1275 1018 1271 1015 1264 1015 c 10
 164 1015 l 18
 157 1015 155 1018 157 1025 c 10
EndSplineSet
EndChar

StartChar: minute
Encoding: 8242 8242 433
Width: 470
VWidth: 1920
Flags: HW
LayerCount: 2
Fore
SplineSet
153 930 m 6
 151 930 l 6
 144 930 142 934 145 940 c 6
 426 1410 l 6
 430 1417 433 1420 440 1420 c 6
 470 1420 l 6
 477 1420 480 1416 476 1410 c 6
 167 940 l 6
 164 935 160 930 153 930 c 6
EndSplineSet
EndChar

StartChar: Euro
Encoding: 8364 8364 435
Width: 1405
VWidth: 1920
Flags: HW
LayerCount: 2
Fore
SplineSet
18 555 m 14
 22 570 l 22
 24 577 27 580 34 580 c 14
 804 580 l 22
 811 580 814 577 812 570 c 14
 808 555 l 22
 806 548 803 545 796 545 c 14
 26 545 l 22
 19 545 16 548 18 555 c 14
80 825 m 14
 84 840 l 22
 86 847 89 850 96 850 c 14
 866 850 l 22
 873 850 876 847 874 840 c 14
 870 825 l 22
 868 818 865 815 858 815 c 14
 88 815 l 22
 81 815 78 818 80 825 c 14
1150 348 m 256
 1077 126 904 -35 587 -35 c 256
 200 -35 115 238 203 618 c 258
 241 783 l 258
 329 1163 539 1435 926 1435 c 256
 1263 1435 1318 1283 1292 1133 c 256
 1291 1124 1286 1123 1279 1123 c 258
 1260 1123 l 258
 1253 1123 1250 1124 1252 1133 c 256
 1279 1259 1246 1405 919 1405 c 256
 552 1405 351 1133 273 793 c 258
 230 608 l 258
 147 248 237 -5 594 -5 c 256
 901 -5 1058 155 1110 348 c 256
 1112 357 1116 358 1123 358 c 258
 1143 358 l 258
 1150 358 1153 357 1150 348 c 256
EndSplineSet
EndChar

StartChar: uni2116
Encoding: 8470 8470 436
Width: 2180
VWidth: 1920
Flags: HW
LayerCount: 2
Fore
SplineSet
1332 10 m 10
 1336 25 l 18
 1338 32 1341 35 1348 35 c 10
 1938 35 l 18
 1945 35 1948 32 1946 25 c 10
 1942 10 l 18
 1940 3 1937 0 1930 0 c 10
 1340 0 l 18
 1333 0 1330 3 1332 10 c 10
EndSplineSet
Refer: 132 8304 S 1 0 0 1 1330 -295 2
Refer: 25 78 N 1 0 0 1 0 0 2
EndChar

StartChar: trademark
Encoding: 8482 8482 437
Width: 1722
VWidth: 1920
Flags: HW
LayerCount: 2
Fore
SplineSet
289 1400 m 2
 931 1400 l 2
 935 1400 937 1398 936 1394 c 2
 934 1388 l 2
 933 1384 931 1382 927 1382 c 2
 615 1382 l 257
 427 566 l 2
 426 562 423 560 419 560 c 2
 413 560 l 2
 409 560 408 562 409 566 c 2
 597 1382 l 257
 285 1382 l 2
 281 1382 279 1384 280 1388 c 2
 282 1394 l 2
 283 1398 285 1400 289 1400 c 2
1107 1364 m 257
 923 566 l 2
 922 562 919 560 915 560 c 2
 909 560 l 2
 905 560 904 562 905 566 c 2
 1096 1394 l 2
 1097 1398 1099 1400 1103 1400 c 2
 1115 1400 l 2
 1119 1400 1121 1398 1122 1394 c 2
 1269 583 l 257
 1760 1394 l 2
 1763 1398 1765 1400 1769 1400 c 2
 1781 1400 l 2
 1785 1400 1787 1398 1786 1394 c 2
 1595 566 l 2
 1594 562 1591 560 1587 560 c 2
 1581 560 l 2
 1577 560 1576 562 1577 566 c 2
 1761 1364 l 257
 1279 566 l 2
 1276 562 1273 560 1269 560 c 2
 1257 560 l 2
 1253 560 1252 562 1251 566 c 2
 1107 1364 l 257
EndSplineSet
EndChar

StartChar: partialdiff
Encoding: 8706 8706 438
Width: 1104
VWidth: 1920
Flags: HW
LayerCount: 2
Fore
SplineSet
529 855 m 256
 299 855 150 700 150 467 c 258
 150 347 l 258
 150 137 321 -5 600 -5 c 256
 907 -5 999 302 999 472 c 258
 999 648 l 258
 999 934 689 1270 236 1450 c 4
 226 1454 224 1458 228 1465 c 2
 234 1475 l 2
 238 1483 239 1485 252 1480 c 0
 626 1337 1034 999 1034 623 c 258
 1034 537 l 258
 1034 237 917 -35 600 -35 c 256
 308 -35 120 109 120 357 c 258
 120 467 l 258
 120 711 272 885 529 885 c 256
 766 885 1009 716 1009 552 c 257
 999 372 l 257
 999 502 l 258
 999 685 789 855 529 855 c 256
EndSplineSet
EndChar

StartChar: summation
Encoding: 8721 8721 439
Width: 1170
VWidth: 1920
Flags: HW
LayerCount: 2
Fore
SplineSet
899 505 m 2
 132 -330 l 1
 1108 -330 l 2
 1115 -330 1118 -333 1118 -340 c 2
 1118 -350 l 2
 1118 -357 1115 -360 1108 -360 c 2
 78 -360 l 2
 71 -360 69 -358 75 -350 c 2
 872 520 l 5
 75 1390 l 2
 69 1398 71 1400 78 1400 c 2
 1108 1400 l 2
 1115 1400 1118 1397 1118 1390 c 2
 1118 1380 l 2
 1118 1373 1115 1370 1108 1370 c 2
 132 1370 l 1
 899 535 l 2
 907 523 907 517 899 505 c 2
EndSplineSet
EndChar

StartChar: minus
Encoding: 8722 8722 440
Width: 1170
Flags: HW
LayerCount: 2
Fore
SplineSet
130 525 m 14
 130 540 l 22
 130 547 133 550 140 550 c 14
 1030 550 l 22
 1037 550 1040 547 1040 540 c 14
 1040 525 l 22
 1040 518 1037 515 1030 515 c 14
 140 515 l 22
 133 515 130 518 130 525 c 14
EndSplineSet
EndChar

StartChar: integral
Encoding: 8747 8747 441
Width: 445
VWidth: 1920
Flags: HW
LayerCount: 2
Fore
SplineSet
238 -98 m 2
 238 -305 197 -378 -91 -351 c 0
 -99 -350 -102 -347 -102 -340 c 2
 -102 -330 l 6
 -102 -323 -99 -320 -92 -321 c 4
 187 -359 208 -265 208 -78 c 6
 208 1188 l 2
 208 1395 239 1469 526 1441 c 0
 535 1440 538 1437 538 1430 c 2
 538 1410 l 2
 538 1403 535 1401 522 1402 c 0
 247 1427 238 1353 238 1168 c 2
 238 -98 l 2
EndSplineSet
EndChar

StartChar: radical
Encoding: 8730 8730 443
Width: 1055
VWidth: 1920
Flags: HMW
LayerCount: 2
Fore
SplineSet
300 1050 m 2
 307 1050 311 1046 313 1040 c 2
 606 4 l 5
 943 1590 l 2
 943 1597 946 1600 953 1600 c 2
 978 1600 l 2
 985 1600 989 1597 988 1590 c 2
 611 -143 l 2
 609 -151 607 -151 604 -143 c 2
 279 1020 l 1
 38 1020 l 2
 31 1020 28 1023 28 1030 c 2
 28 1040 l 2
 28 1047 31 1050 38 1050 c 2
 300 1050 l 2
EndSplineSet
EndChar

StartChar: infinity
Encoding: 8734 8734 444
Width: 1450
Flags: HMW
LayerCount: 2
Fore
SplineSet
382 301 m 0
 182 301 64 471 64 665 c 0
 64 859 182 1025 382 1025 c 0
 536 1025 638 855 702 695 c 1
 766 855 866 1025 1020 1025 c 0
 1220 1025 1336 859 1336 665 c 0
 1336 471 1220 301 1020 301 c 0
 866 301 746 471 702 631 c 1
 636 471 536 301 382 301 c 0
382 331 m 4
 540 331 632 541 686 665 c 1
 636 787 540 995 382 995 c 4
 202 995 94 835 94 665 c 0
 94 507 202 331 382 331 c 4
1020 331 m 4
 1210 331 1306 507 1306 665 c 0
 1306 825 1210 995 1020 995 c 4
 862 995 766 787 716 665 c 1
 746 543 862 331 1020 331 c 4
EndSplineSet
EndChar

StartChar: product
Encoding: 8719 8719 445
Width: 1380
VWidth: 1920
Flags: HW
LayerCount: 2
Fore
SplineSet
1170 1400 m 6
 1177 1400 1180 1397 1180 1390 c 6
 1180 10 l 6
 1180 3 1177 0 1170 0 c 6
 1160 0 l 6
 1153 0 1150 3 1150 10 c 6
 1150 1370 l 261
 230 1370 l 257
 230 10 l 2
 230 3 227 0 220 0 c 2
 210 0 l 2
 203 0 200 3 200 10 c 2
 200 1390 l 18
 200 1397 203 1400 210 1400 c 10
 1170 1400 l 6
EndSplineSet
EndChar

StartChar: uni2219
Encoding: 8729 8729 446
Width: 540
Flags: HW
LayerCount: 2
Fore
SplineSet
121 675 m 0
 121 763 182 825 270 825 c 0
 358 825 419 763 419 675 c 0
 419 587 363 525 275 525 c 0
 187 525 121 587 121 675 c 0
EndSplineSet
EndChar

StartChar: approxequal
Encoding: 8776 8776 447
Width: 1180
VWidth: 1920
Flags: HW
LayerCount: 2
Fore
SplineSet
402 799 m 256
 280 799 183 690 180 577 c 0
 180 571 177 568 170 568 c 2
 160 568 l 2
 153 568 150 571 150 577 c 0
 154 715 261 829 402 829 c 256
 581 829 627 572 779 572 c 256
 901 572 998 671 1001 793 c 0
 1001 800 1004 803 1011 803 c 2
 1020 803 l 2
 1027 803 1030 800 1030 793 c 0
 1026 655 919 542 779 542 c 256
 600 542 574 799 402 799 c 256
402 429 m 256
 280 429 183 320 180 207 c 0
 180 201 177 198 170 198 c 2
 160 198 l 2
 153 198 150 201 150 207 c 0
 154 345 261 459 402 459 c 256
 581 459 627 202 779 202 c 256
 901 202 998 301 1001 423 c 0
 1001 430 1004 433 1011 433 c 2
 1020 433 l 2
 1027 433 1030 430 1030 423 c 0
 1026 285 919 172 779 172 c 256
 600 172 574 429 402 429 c 256
EndSplineSet
EndChar

StartChar: notequal
Encoding: 8800 8800 448
Width: 1180
VWidth: 1920
Flags: HW
LayerCount: 2
Fore
SplineSet
1008 960 m 2
 1010 958 l 2
 1015 953 1015 949 1010 944 c 2
 186 40 l 2
 181 35 177 35 172 40 c 2
 170 42 l 6
 165 47 165 51 170 56 c 6
 994 960 l 2
 999 965 1003 965 1008 960 c 2
EndSplineSet
Refer: 83 61 N 1 0 0 1 0 0 2
EndChar

StartChar: lessequal
Encoding: 8804 8804 449
Width: 1010
VWidth: 1920
Flags: HW
LayerCount: 2
Fore
SplineSet
110 10 m 10
 110 25 l 22
 110 32 113 35 120 35 c 14
 890 35 l 22
 897 35 900 32 900 25 c 14
 900 10 l 18
 900 3 897 0 890 0 c 10
 120 0 l 18
 113 0 110 3 110 10 c 10
EndSplineSet
Refer: 84 60 N 1 0 0 1 0 150 2
EndChar

StartChar: greaterequal
Encoding: 8805 8805 450
Width: 1010
VWidth: 1920
Flags: HW
LayerCount: 2
Fore
SplineSet
110 10 m 10
 110 25 l 22
 110 32 113 35 120 35 c 14
 890 35 l 22
 897 35 900 32 900 25 c 14
 900 10 l 18
 900 3 897 0 890 0 c 10
 120 0 l 18
 113 0 110 3 110 10 c 10
EndSplineSet
Refer: 85 62 N 1 0 0 1 0 150 2
EndChar

StartChar: lozenge
Encoding: 9674 9674 451
Width: 950
Flags: HW
LayerCount: 2
Fore
SplineSet
481 40 m 2
 81 702 l 2
 76 710 76 714 81 722 c 2
 481 1382 l 2
 487 1391 487 1392 493 1382 c 2
 869 722 l 2
 873 714 873 710 869 702 c 2
 493 40 l 2
 488 30 487 31 481 40 c 2
481 124 m 1
 833 712 l 5
 481 1300 l 1
 117 712 l 1
 481 124 l 1
EndSplineSet
EndChar

StartChar: uniF8EA
Encoding: 63722 63722 452
Width: 1088
VWidth: 1920
Flags: HW
LayerCount: 2
Fore
SplineSet
281 1400 m 6
 667 1400 l 6
 669 1400 669 1398 669 1396 c 6
 669 1393 l 6
 669 1391 667 1389 665 1389 c 6
 477 1389 l 261
 364 900 l 6
 364 898 362 896 360 896 c 6
 356 896 l 6
 354 896 354 898 354 900 c 6
 467 1389 l 261
 279 1389 l 6
 277 1389 277 1391 277 1393 c 6
 277 1396 l 6
 277 1398 279 1400 281 1400 c 6
772 1378 m 261
 662 900 l 6
 662 898 659 896 657 896 c 6
 654 896 l 6
 652 896 651 898 651 900 c 6
 765 1396 l 6
 765 1398 768 1400 770 1400 c 6
 777 1400 l 6
 779 1400 780 1398 781 1396 c 6
 869 910 l 261
 1164 1396 l 6
 1165 1398 1167 1400 1169 1400 c 6
 1177 1400 l 6
 1179 1400 1179 1398 1179 1396 c 6
 1065 900 l 6
 1065 898 1063 896 1061 896 c 6
 1057 896 l 6
 1055 896 1054 898 1054 900 c 6
 1164 1378 l 261
 876 900 l 6
 875 898 872 896 870 896 c 6
 863 896 l 6
 861 896 860 898 859 900 c 6
 772 1378 l 261
EndSplineSet
EndChar

StartChar: uniF8E8
Encoding: 63720 63720 453
Width: 986
Flags: HW
LayerCount: 2
Fore
SplineSet
520 1259 m 261
 466 1027 l 261
 639 1027 l 262
 706 1027 775 1061 791 1129 c 262
 793 1141 l 262
 811 1217 778 1259 693 1259 c 262
 520 1259 l 261
695 1270 m 262
 784 1270 822 1224 803 1141 c 262
 801 1132 l 262
 783 1056 723 1021 638 1021 c 261
 639 1025 l 261
 731 1025 769 1003 749 917 c 262
 741 884 l 262
 732 843 732 799 743 774 c 4
 745 770 744 769 744 768 c 6
 744 767 l 6
 744 766 743 766 741 766 c 6
 737 766 l 6
 735 766 734 766 733 769 c 4
 721 804 718 838 729 884 c 262
 737 917 l 262
 757 1003 715 1019 637 1019 c 262
 464 1019 l 261
 407 769 l 6
 407 767 404 766 402 766 c 6
 399 766 l 6
 397 766 396 767 396 769 c 6
 510 1266 l 6
 510 1268 513 1270 515 1270 c 6
 695 1270 l 262
1026 1016 m 4
 973 786 740 599 510 599 c 4
 280 599 137 786 190 1016 c 4
 243 1246 473 1435 703 1435 c 4
 933 1435 1079 1246 1026 1016 c 4
1008 1016 m 4
 1059 1237 920 1417 699 1417 c 4
 478 1417 259 1237 208 1016 c 4
 157 795 293 617 514 617 c 4
 735 617 957 795 1008 1016 c 4
EndSplineSet
EndChar

StartChar: uniF8E9
Encoding: 63721 63721 454
Width: 986
Flags: HW
LayerCount: 2
Fore
SplineSet
779 945 m 260
 755 856 661 753 546 753 c 260
 407 753 372 851 404 988 c 262
 418 1048 l 262
 450 1185 529 1282 668 1282 c 260
 711 1282 843 1270 809 1116 c 260
 808 1113 806 1112 804 1112 c 262
 801 1112 l 262
 799 1112 797 1113 798 1116 c 260
 819 1212 772 1271 669 1271 c 260
 533 1271 459 1178 429 1048 c 262
 415 988 l 262
 385 858 416 764 552 764 c 260
 637 764 739 843 769 945 c 260
 770 948 771 949 773 949 c 262
 777 949 l 262
 779 949 780 948 779 945 c 260
1026 1016 m 4
 973 786 740 599 510 599 c 4
 280 599 137 786 190 1016 c 4
 243 1246 473 1435 703 1435 c 4
 933 1435 1079 1246 1026 1016 c 4
1008 1016 m 4
 1059 1237 920 1417 699 1417 c 4
 478 1417 259 1237 208 1016 c 4
 157 795 293 617 514 617 c 4
 735 617 957 795 1008 1016 c 4
EndSplineSet
EndChar

StartChar: uni1E9E
Encoding: 7838 7838 457
Width: 1380
VWidth: 1920
Flags: HW
LayerCount: 2
Fore
SplineSet
352 1005 m 2
 418 1289 608 1434 898 1434 c 0
 1169 1434 1296 1329 1364 1191 c 0
 1373 1173 1375 1170 1358 1156 c 2
 792 692 l 1
 950 643 1233 569 1182 348 c 0
 1130 124 1000 -35 731 -35 c 0
 623 -35 530 -15 491 16 c 0
 472 31 469 26 471 35 c 2
 473 45 l 2
 476 56 480 59 496 48 c 0
 533 22 646 -5 738 -5 c 0
 993 -5 1107 151 1152 348 c 0
 1197 545 931 622 767 672 c 0
 748 678 745 681 765 697 c 2
 1341 1173 l 1
 1268 1305 1169 1404 891 1404 c 0
 622 1404 450 1278 382 985 c 2
 157 10 l 2
 155 3 152 0 145 0 c 2
 130 0 l 2
 123 0 120 3 122 10 c 2
 352 1005 l 2
EndSplineSet
EndChar
